<?xml version="1.0" standalone="no"?>
<!DOCTYPE svg PUBLIC "-//W3C//DTD SVG 1.1//EN" "http://www.w3.org/Graphics/SVG/1.1/DTD/svg11.dtd">
<svg xmlns="http://www.w3.org/2000/svg">
<metadata>Copyright (C) 2017 by original authors @ fontello.com</metadata>
<defs>
<font id="fontello" horiz-adv-x="1000" >
<font-face font-family="fontello" font-weight="400" font-stretch="normal" units-per-em="1000" ascent="850" descent="-150" />
<missing-glyph horiz-adv-x="1000" />
<glyph glyph-name="adjusment-system" unicode="&#xe800;" d="M749 850h-520c-55 0-55-50-55-83 0-22 17-35 54-40 46-6 100-12 152-17 80-9 155-17 209-27 29-5 64-20 64-62v-284c0-34-28-62-62-62h-156v195c0 1 0 2-1 3 5 4 8 9 12 13l34 51c8 12 9 24 4 33-5 10-16 15-30 15h-129c-14 0-25-5-30-15-5-9-4-21 4-33l34-51c3-4 7-9 11-13 0-1 0-2 0-3v-195h-115c-29 0-64-15-64-84 0-69 35-83 64-83h115v-82h-12c-19 0-34-16-34-35v-1h-53v8c0 10-8 18-17 18-10 0-17-8-17-18v-51c0-9 7-17 17-17 9 0 17 8 17 17v9h53v-2c0-19 15-34 34-34h12v-49c0-12 9-21 21-21h49c11 0 21 9 21 21v49h12c19 0 34 15 34 34v2h53v-9c0-9 7-17 17-17s17 8 17 17v51c0 10-8 18-17 18s-17-8-17-18v-8h-53v1c0 19-15 35-34 35h-12v82h314c47 0 86 38 86 86v571c0 47-39 85-86 85z" horiz-adv-x="1000" />

<glyph glyph-name="adjustment-system" unicode="&#xe801;" d="M781 368h-215v150h128c12 0 22 10 22 23v83c0 13-10 23-22 23h-128v88h46v-4c0-12 10-22 22-22 13 0 23 10 23 22v53c0 12-10 22-23 22-12 0-22-10-22-22v-4h-46v36c0 19-15 34-34 34h-21c-19 0-34-15-34-34v-36h-52v4c0 12-10 22-23 22-12 0-22-10-22-22v-53c0-12 10-22 22-22 13 0 23 10 23 22v4h52v-88h-174c-12 0-22-10-22-23v-677h-61c-18 0-33-16-33-34v-29c0-19 15-34 33-34h246c18 0 33 15 33 34v29c0 18-15 34-33 34h-67v571h78v-150-98-21c0-11 9-28 33-28h103c49 0 99 2 136 18 43 17 65 51 65 100 0 29-22 29-33 29z" horiz-adv-x="1000" />

<glyph glyph-name="angle-ruler" unicode="&#xe805;" d="M977 799h-14c-6 0-12-3-12-10v-68c0-2-2-4-4-4h-29c-2 0-4 2-4 4v66c0 4-1 7-3 9-3 3-7 3-7 3 0 0 0 0 0 0h-76c-5 0-12-3-12-11v-30c0-3-1-5-4-5h-28c-3 0-5 2-5 5v30l0 1c0 4-3 10-10 10h-77c-4 0-6-1-7-2-3-3-3-7-3-9v-67c0-2-2-4-4-4h-29c-2 0-4 2-4 4v66c0 5-2 8-4 9-3 3-6 3-7 3 0 0 0 0 0 0h-77c-4 0-10-2-10-10v-31c0-3-2-5-4-5h-29c-2 0-4 2-4 5v29c0 5-2 8-3 9-3 3-7 3-8 3 0 0 0 0 0 0h-77c-4 0-10-3-10-11v-67c0-2-1-4-4-4h-28c-3 0-5 2-5 4v67c0 4-1 7-3 9-2 2-6 2-6 2 0 0 0 0 0 0h-77c-6 0-11-3-11-9v-32c0-3-2-5-4-5h-26v48 19c0 13-10 23-22 23h-204c-12 0-22-10-22-23v-247c0-13 10-23 22-23h11v-34c0-6 4-10 11-10 0 0 0 0 0 0h67c2 0 4-2 4-4v-29c0-2-2-4-4-4h-66c-4 0-7-2-9-3-3-3-3-7-3-8v-77c0 0 0-4 3-7 1-1 4-3 8-3h31c2 0 4-1 4-4v-29c0-2-2-4-4-4h-29c-5 0-8-2-10-3-3-3-3-7-3-8v-76c0-1 0-4 3-7 1-1 4-3 9-3h66c2 0 4-2 4-4v-29c0-2-2-4-4-4h-66c-5 0-8-2-9-4-3-2-3-5-3-6v-77c0-1 0-5 3-8 2-2 4-3 7-3h32c2 0 4-2 4-4v-29c0-2-2-4-4-4h-31c-8 0-11-6-11-10v-77c0-1 0-5 3-8 1-2 3-3 6-3h69c2 0 4-2 4-4v-29c0-2-2-4-4-4h-65c-10 0-13-7-13-12v-38c0-13 10-23 23-23h169c13 0 23 10 23 23v693 11h729c13 0 23 11 23 23v169c0 13-10 23-23 23z m-853-170c-37 0-67 30-67 68 0 37 30 67 67 67s67-30 67-67c0-38-30-68-67-68z" horiz-adv-x="1000" />

<glyph glyph-name="anvil" unicode="&#xe806;" d="M733 125h-59c-37 35-57 83-57 133 0 23 4 46 12 67h-258c8-21 13-44 13-67 0-50-21-98-57-133h-60c-28 0-50-22-50-50s22-50 50-50h466c28 0 50 22 50 50s-22 50-50 50z m254 450c8 26 13 54 13 83 0 10-7 17-17 17h-683c-9 0-17-7-17-17v-33h-266c-10 0-17-7-17-17 0-119 97-216 217-216h83 26c11-10 20-22 28-34h292c8 12 17 24 28 34h59c106 0 196 61 240 150h-656v33h670z m-704-17v-133h-66c-96 0-174 73-183 167h249v-34z" horiz-adv-x="1000" />

<glyph glyph-name="axe" unicode="&#xe807;" d="M393 170c26 83 31 108 13 195v2l-7 21c-3 7-10 12-16 12h-134c-5 0-10-3-13-7-3-5-3-10-2-15l7-20c17-83 12-100-13-178v-2c-10-53-14-106-10-160h65c10 0 16-6 16-16 0-10-6-17-16-17h-60c1-12 3-22 5-33h71c10 0 17-7 17-17s-7-17-17-17h-65c2-8 5-16 7-25l8-30c4-8 10-13 17-13h133c5 0 10 2 14 7 3 5 3 10 3 15l-10 28c-27 87-30 180-13 270z m243 593l-15 34-8 16c-65-20-130-30-197-30h-17v50c0 10-6 17-16 17h-134c-8 0-16-8-16-17v-50h-17c-8 0-17-8-17-16v-300c0-10 7-17 17-17h200c65 0 132-10 193-28l10 16 15 32c44 93 44 200 2 293z m-270 20h-100v34h100v-34z m393 19l-18 38c-3 8-12 12-20 8l-78-26 23-45c47-102 47-219 0-320l-15-34c0 0 0-1-2-1l-6-12 78-27c2 0 3-1 5-1 7 0 12 3 15 10l18 38c55 120 55 253 0 372z" horiz-adv-x="1000" />

<glyph glyph-name="backhoes" unicode="&#xe808;" d="M558 159c-22 0-39-18-39-39 0-22 17-40 39-40 21 0 39 18 39 40 0 21-18 39-39 39z m143 0c-22 0-39-18-39-39 0-22 17-40 39-40 21 0 39 18 39 40 0 21-18 39-39 39z m142 0c-21 0-39-18-39-39 0-22 18-40 39-40 22 0 40 18 40 40 0 21-18 39-40 39z m-679 100c-11 27-18 82-22 115l58 89c10-4 21-7 33-7 20 0 39 8 54 20l200-138c2-2 4-3 7-4v-7c0-35 28-63 62-63h283c35 0 63 28 63 63v303c0 35-28 63-63 63h-231c-34 0-66-26-73-59l-31-112 0-1c-6-28-10-72-10-101l-177 122c-1 46-38 83-84 83-47 0-84-38-84-85 0-7 1-14 2-20l-79-123c-33-51-87-144-68-195 12-34 43-62 88-80 48-19 96-21 114-21l1 0c24 0 34 9 37 16 3 7 5 18-7 32-1 1-58 70-73 110z m464 246c3 7 3 14 1 21-3 6-8 12-15 14-3 2-7 3-10 3-11 0-21-7-25-17l-19-44c-4 4-6 11-5 18l27 110 1 1c2 15 18 28 34 28h203c15 0 27-12 27-27v-109c0-15-12-27-27-27h-204l12 29z m-427 36c0 18 14 32 32 32 18 0 32-14 32-32s-14-32-32-32c-18 0-32 14-32 32z m687-309h-374c-69 0-112-43-112-112s43-113 112-113h374c69 0 112 43 112 113s-43 112-112 112z m0-179h-374c-44 0-66 22-66 67 0 44 22 66 66 66h374c44 0 66-22 66-66 0-45-22-67-66-67z" horiz-adv-x="1000" />

<glyph glyph-name="barrier" unicode="&#xe809;" d="M983 650h-90l-233-233h57v-34h-70l-234-233h199l233 233h-28v34h31l152 151v65c0 9-7 17-17 17z m-200-267h-33v34h33v-34z m34 317c20 15 33 38 33 67 0 46-37 83-83 83-47 0-84-37-84-83 0-27 14-52 34-67v-50h-69l-233-233h198l234 233h-30v50z m-34-50h-33v35c5-2 12-2 17-2 5 0 11 0 16 2v-35z m-766 0c-10 0-17-7-17-17v-121l138 138h-121z m878-233h88c10 0 17 6 17 16v89l-105-105z m-612 233v50c20 15 34 38 34 67 0 46-37 83-84 83-46 0-83-37-83-83 0-27 13-52 33-67v-53l-183-184v-30c0-10 8-16 17-16h123l233 233h-90z m-33 0h-33v35c5-2 11-2 16-2 5 0 12 0 17 2v-35z m733-267h-90l-233-233h90v-83h-500v83h117l233 233h-178l-200-200h-47l200 200h-92v34h84l233 233h-178l-200-200h-22c-10 0-17-7-17-17v-51l-183-184v-31c0-10 7-17 17-17h123l10 10v-293c0-10 7-17 17-17h66c10 0 17 7 17 17v66h500v-66c0-10 7-17 17-17h66c10 0 17 7 17 17v285l150 150v65c0 8-7 16-17 16z m-766 34h33v-34h-33v34z m0-367v-100-67h-34v267h5 29v-100z m600-167h-34v67 100 100h34v-267z m-800 500c-10 0-17-6-17-16v-122l138 138h-121z m878-233h88c10 0 17 7 17 17v88l-105-105z" horiz-adv-x="1000" />

<glyph glyph-name="big-derrick-with-boxes" unicode="&#xe80f;" d="M29 168h127c13 0 24 10 24 23v94c0 2 0 4-1 6 0 4-1 8-4 11l-64 63c-1 1-3 2-4 3v245l436-115c1 0 2 0 4 0 1 0 2 0 3 0h16c13 0 24 11 24 24v136c0 13-11 23-24 23h-468c-14 0-24-10-24-23v-19c0-2 0-4 0-6 1-1 1-2 1-2 0-1 0-1 0-1v-265l-64-63c-3-3-5-7-5-11 0-2-1-4-1-6v-94c0-13 11-23 24-23z m93 140h-58l29 29 29-29z m399 307c2 0 3-1 3-2v-76l-296 78h293z m463-682h-19l-18 27c-6 9-18 16-29 16h-62c-1 0-2 1-2 2v525h74c13 0 23 11 23 24v248c0 14-10 24-23 24h-198c-11 0-23-8-27-19l-51-140c-3-8-5-20-5-29v-84c0-13 10-24 24-24h100v-525c0-1-1-2-2-2h-59c-11 0-23-7-29-16l-18-27h-292v152c0 13-11 24-24 24h-127c-13 0-24-11-24-24v-41h-144c-13 0-24-11-24-24v-87h-12c-9 0-16-7-16-16 0-9 7-16 16-16h968c9 0 16 7 16 16 0 9-7 16-16 16z m-272 621c-7 0-13 6-13 13v52c0 7 2 19 4 25l34 92c2 7 10 12 17 12h132c8 0 13-5 13-12v-169c0-7-5-13-13-13h-174z" horiz-adv-x="1000" />

<glyph glyph-name="big-shovel" unicode="&#xe812;" d="M978 745l-83 83c-14 14-34 22-54 22-14 0-28-4-39-10l-91-55c-16-10-26-25-28-43-3-17 4-34 17-48l52-51-315-315-4 3c-50 51-110 81-161 81-33 0-61-12-84-35l-65-65c0 0 0 0 0 0l-101-101c-19-20-27-55-18-81 2-5 49-140 93-183 43-44 178-91 183-93 7-3 15-4 23-4 22 0 44 8 58 22l11 11c0 0 0 0 0 0l155 155c25 25 37 57 34 93 0 1 1 1 1 1l69 69c18 18 28 42 28 68 0 26-10 50-28 68l-52 51 214 214 51-52c12-12 27-18 42-18 20 0 38 11 49 29l55 91c17 29 12 69-12 93z m-388-449c7-7 11-17 11-27s-4-20-11-27l-46-46c-14 30-36 60-63 87l-3 4 60 61 52-52z m151 439c0 0 0 0 0 0 0 0 0 0 0 0l91 55c2 2 5 2 9 2 5 0 10-2 13-4l22-22-83-83-52 52z m199-53l-55-91c0 0 0 0 0 0 0 0 0 0 0 0l-52 52 83 83 22-22c5-5 6-16 2-22z" horiz-adv-x="1000" />

<glyph glyph-name="board" unicode="&#xe813;" d="M995 550l-47 48-94-95c-4-3-8-5-12-5-4 0-9 2-12 5-6 7-6 17 0 24l94 94-35 36-71-71c-3-3-7-5-11-5-5 0-9 2-12 5-7 6-7 17 0 23l70 71-35 35-141-141c-4-3-8-5-12-5-4 0-9 2-12 5-6 7-6 17 0 24l142 141-107 106c-6 7-17 7-23 0l-672-672c-3-3-5-7-5-12 0-4 2-8 5-11l47-48 212 213c7 6 17 6 24 0 6-7 6-17 0-24l-212-212 35-35 153 153c7 6 17 6 24 0 6-7 6-17 0-24l-153-153 35-35 71 70c6 7 17 7 23 0 7-6 7-17 0-23l-70-71 35-35 153 153c7 6 17 6 24 0 6-7 6-17 0-24l-154-153 48-47c3-3 7-5 11-5 5 0 9 2 12 5l672 672c3 3 5 7 5 12 0 4-2 8-5 11z m-259 0c6 7 17 7 23 0 7-6 7-17 0-23l-82-83c-3-3-8-5-12-5-4 0-8 2-12 5-6 7-6 17 0 24l83 82z m-177 59l106 106c7 7 17 7 24 0 6-6 6-17 0-23l-106-106c-4-3-8-5-12-5-4 0-9 2-12 5-7 6-7 17 0 23z m83-82l-95-94c-3-4-7-5-12-5-4 0-8 1-11 5-7 6-7 17 0 23l94 94c6 7 17 7 24 0 6-6 6-17 0-23z m-295-130l153 153c7 7 17 7 24 0 6-6 6-17 0-23l-154-153c-3-4-7-5-11-5-5 0-9 1-12 5-7 6-7 17 0 23z m36-225c6-7 5-16-1-22l-47-48c-3-3-8-4-12-4-4 0-8 1-12 4-6 7-6 18 0 24l38 37c-25 43-17 101 10 128l106 106c6 7 17 7 23 0 7-6 7-17 0-23l-106-106c-17-17-24-66 1-96z m23 25c-13 13-13 34 0 47 13 13 34 13 47 0s13-34 0-47-34-13-47 0z m94-47l-35-36c-4-3-8-5-12-5-4 0-9 2-12 5-6 7-6 17 0 24l35 35c32 32 32 63 0 95-6 6-6 17 0 23l118 118c7 7 17 7 24 0 6-7 6-17 0-24l-107-106c33-42 29-89-11-129z m212 212l-118-118c-3-3-7-5-11-5-5 0-9 2-12 5-7 6-7 17 0 24l118 117c6 7 17 7 23 0 7-6 7-17 0-23z m83 82l-24-23c-3-3-7-5-12-5-4 0-8 2-11 5-7 6-7 17 0 23l23 24c7 6 17 6 24 0 6-7 6-17 0-24z" horiz-adv-x="1000" />

<glyph glyph-name="brick-wall" unicode="&#xe816;" d="M37 369h240c21 0 37 17 37 37v75c0 20-16 37-37 37h-240c-20 0-37-17-37-37v-75c0-20 17-37 37-37z m619 37v75c0 20-16 37-37 37h-240c-20 0-37-17-37-37v-75c0-20 17-37 37-37h240c21 0 37 17 37 37z m342 0v75c0 20-16 37-37 37h-240c-20 0-37-17-37-37v-75c0-20 17-37 37-37h240c21 0 37 17 37 37z m-792 150h240c21 0 37 17 37 37v75c0 20-16 37-37 37h-240c-20 0-37-17-37-37v-75c0-20 17-37 37-37z m346 0h240c20 0 37 17 37 37v75c0 20-17 37-37 37h-240c-21 0-38-17-38-37v-75c0-20 17-37 38-37z m-515 0h66c20 0 37 17 37 37v75c0 20-17 37-37 37h-66c-20 0-37-17-37-37v-75c0-20 17-37 37-37z m926 149h-66c-20 0-37-17-37-37v-75c0-20 17-37 37-37h66c20 0 37 17 37 37v75c0 20-17 37-37 37z m-686-561h-240c-20 0-37-16-37-37v-75c0-20 17-37 37-37h240c21 0 37 17 37 37v75c0 21-16 37-37 37z m342 0h-240c-20 0-37-16-37-37v-75c0-20 17-37 37-37h240c21 0 37 17 37 37v75c0 21-16 37-37 37z m342 0h-240c-20 0-37-16-37-37v-75c0-20 17-37 37-37h240c21 0 37 17 37 37v75c0 21-16 37-37 37z m-755 187c-20 0-37-17-37-37v-75c0-20 17-37 37-37h240c21 0 37 17 37 37v75c0 20-16 37-37 37h-240z m346-149h240c20 0 37 17 37 37v75c0 20-17 37-37 37h-240c-21 0-38-17-38-37v-75c0-20 17-37 38-37z m-515 0h66c20 0 37 17 37 37v75c0 20-17 37-37 37h-66c-20 0-37-17-37-37v-75c0-20 17-37 37-37z m926 149h-66c-20 0-37-17-37-37v-75c0-20 17-37 37-37h66c20 0 37 17 37 37v75c0 20-17 37-37 37z" horiz-adv-x="1000" />

<glyph glyph-name="bucket" unicode="&#xe81a;" d="M550 850h-100c-190 0-350-168-350-367 0-9 7-16 17-16h50v-17c0-18 15-33 33-33h1l20-334h62c10 0 17-7 17-16s-7-17-17-17h-60l2-33h92c9 0 16-8 16-17 0-9-7-17-16-17h-91l2-33h122c9 0 17-7 17-17s-8-16-17-16h-120l2-20c1-26 23-47 49-47h438c26 0 48 21 50 47l1 20h-53c-10 0-17 7-17 16s7 17 17 17h55l2 33h-91c-9 0-16 8-16 17 0 9 7 17 16 17h93l2 33h-128c-9 0-17 7-17 17s8 16 17 16h129l20 334h1c18 0 33 15 33 33v17h50c10 0 17 7 17 16 0 199-160 367-350 367z m100-617c0-9-7-16-17-16h-266c-10 0-17 7-17 16v134c0 9 7 16 17 16h266c10 0 17-7 17-16v-134z m133 217h-566-17v67h600l0-34c0 0 0 0 0 0 0 0 0 0 0 0l0-33h-17z m50 50v17c0 18-15 33-33 33h-600c-18 0-33-15-33-33v-17h-33c8 173 150 317 316 317h100c166 0 308-144 316-317h-33z m-450-250h234v100h-234v-100z m50 67h134c9 0 16-8 16-17s-7-17-16-17h-134c-9 0-16 8-16 17s7 17 16 17z" horiz-adv-x="1000" />

<glyph glyph-name="cement-truck" unicode="&#xe81d;" d="M935 209h-14v180c8 7 14 15 21 22 39 47 60 95 58 136-2 36-30 106-58 131-33 30-91 47-157 47-53 0-109-11-156-32-76-33-125-78-146-132-18-47-14-101 11-159 12-26 26-49 43-67v-126h-98c-10 0-14 3-15 4-2 1-2 3-2 4l0 331 0 2c-4 16-19 27-36 27h-20c-14 0-26 1-27 1h-124c-33 0-49-17-63-43-2-5-39-65-75-128-77-135-77-149-77-154v-96c0-33 27-61 61-61h90c0-2 0-4 0-7 0-63 51-114 114-114 64 0 115 51 115 114 0 3 0 5 0 7h250c0-2 0-4 0-7 0-63 51-114 114-114 63 0 115 51 115 114 0 3 0 5-1 7h77c25 0 45 15 45 35v44c0 19-20 34-45 34z m-670-176c-30 0-56 25-56 56 0 31 26 56 56 56 31 0 56-25 56-56 0-31-25-56-56-56z m93 356c0-17-13-30-29-30h-189c-7 0-12 2-13 5-2 3-2 8 2 14 3 5 49 82 63 110 15 31 34 34 56 34h91c12 0 19 0 19-51v-82z m386-356c-31 0-56 25-56 56 0 31 25 56 56 56 31 0 56-25 56-56 0-31-25-56-56-56z m-165 176v90c27-16 58-25 93-25 39 0 82 11 128 31 27 12 54 28 79 47v-143h-300z" horiz-adv-x="1000" />

<glyph glyph-name="chainsaw" unicode="&#xe81e;" d="M83 225c0-9 8-17 17-17h217c9 0 16 8 16 17 0 9-7 17-16 17h-217c-9 0-17-8-17-17z m891 62l-181 135c-1 1-2 1-4 2-18 40-59 68-106 68h-100v50c0 36-30 66-66 66s-67-30-67-66v-50c-57 0-83-90-83-150v-17h-267c-55 0-100-45-100-100 0-55 45-100 100-100h270c7-19 25-33 47-33h83v216c0 10 7 17 17 17h66v17h-16c-10 0-17 7-17 16 0 10 8 17 17 17h66c10 0 17-7 17-17 0-9-7-16-17-16h-16v-17h66c6 0 11-3 14-7l34-50c1-3 2-6 2-10v-50c0-1 0-3 0-5l-14-111h14c25 0 46 13 58 33h159c28 0 50 23 50 50v59c0 20-10 40-26 53z m-607-129h-267c-37 0-67 30-67 67s30 67 67 67h267v-134z m183 334h-67v50c0 18 15 33 34 33 18 0 33-15 33-33v-50z m250-267v67l89-67h-89z m-267 67v-200h153l14 119v42l-26 39h-141z m100-134h-50c-9 0-16 8-16 17 0 9 7 17 16 17h50c10 0 17-8 17-17 0-9-7-17-17-17z m0 67h-50c-9 0-16 8-16 17 0 9 7 16 16 16h50c10 0 17-7 17-16 0-9-7-17-17-17z" horiz-adv-x="1000" />

<glyph glyph-name="clippers" unicode="&#xe820;" d="M990 747c-5 5-12 8-20 8-9 0-19-4-26-11-10-10-23-31-28-48l-17-54c-4-11-17-23-28-26l-61-16c-16-4-39-17-52-30l-37-37c-4-3-8-5-12-5-4 0-9 2-12 5l-14 14c-7 7-7 17 0 23l37 38c13 12 26 35 30 52l16 61c3 11 15 24 26 28l54 17c17 5 38 18 48 28 6 6 10 14 11 22 1 9-2 18-8 24-6 6-17 10-30 10-7 0-15-1-21-3l-105-36c-16-6-38-19-51-32l-53-54c-13-13-24-37-24-56v-6c0-12-7-31-16-40l-4-3c-5-6-10-11-14-14-2-2-3-4-4-5-3-3-4-6-5-9 0 3 1 5 3 7-1-1-4-4-8-8-10-10-6-29 11-45l120-120c10-10 22-16 31-16 7 0 11 3 14 5 4 4 7 7 8 8 0 0-1-1-2-2 3 2 8 8 23 22l3 4c9 9 28 16 40 16h6c19 0 43 11 57 24l53 53c13 13 26 35 32 51l36 105c5 16 5 40-7 51z m-418-161c-1 1-1 1-1 2 0-1 0-1 1-2z m1-2c0 0 0 1-1 1 1 0 1-1 1-1z m-1 1c0 0 0 1 0 1 0 0 0-1 0-1z m-88-7c-7 7-16 11-26 11-10 0-20-4-27-11l-35-35c-14-15-14-38 0-53l1-1-180-130c-11-7-25-21-33-31l-177-228c-11-14-9-35 3-47l33-33c6-6 14-9 22-9 9 0 17 4 23 12l173 219c6 8 19 19 28 25l205 125 48-48-125-206c-6-8-17-21-25-27l-219-173c-7-5-11-13-12-22 0-8 3-17 9-23l33-33c6-6 16-10 25-10h0c8 0 16 3 22 7l228 177c10 8 24 22 31 33l130 180 1-1c7-7 16-11 26-11 10 0 20 4 27 11l35 35c7 7 11 17 11 27 0 10-4 19-11 26l-244 244z" horiz-adv-x="1000" />

<glyph glyph-name="concrete-mixer" unicode="&#xe821;" d="M702 683c-14 40-52 67-94 67h-149c-42 0-80-27-94-67l-77-216h491l-77 216z m-297-535c12-19 33-31 56-31h144c23 0 45 12 57 31l114 185h-485l114-185z m578 402h-16c0 9-8 17-17 17s-17-8-17-17v-133h-16v66c0 10-8 17-17 17h-67c-9 0-16-7-16-17v-66h-34v16h-500v-16h-33v216c0 10-7 17-17 17h-66-84c-4 0-8-2-11-5l-67-67c-3-3-5-7-5-11v-67h67c9 0 16-7 16-17s-7-16-16-16h-67v-34h67c9 0 16-7 16-16s-7-17-16-17h-67v-17c0-36 30-66 67-66h83v-217c-20-16-33-39-33-67 0-46 37-83 83-83 46 0 83 37 83 83 0 28-13 51-33 67v283h33v-16h500v16h34v-283c-20-16-34-40-34-67 0-46 38-83 84-83 46 0 83 37 83 83 0 27-13 51-33 67v283h16v-133c0-9 8-17 17-17s17 8 17 17v267h16c10 0 17 7 17 16s-7 17-17 17z m-766-149c0 0-1-1-1-1s1-1 1-1v-284c-6 1-11 2-17 2s-11-1-17-2v218 284h34v-216z m666-286c-5 1-11 2-16 2s-12-1-17-2v352h33v-352z" horiz-adv-x="1000" />

<glyph glyph-name="constructing-a-brick-wall" unicode="&#xe823;" d="M184 103h-150c-19 0-34-16-34-34v-63c0-19 15-34 34-34h150c19 0 34 15 34 34v63c0 18-15 34-34 34z m252 0h-150c-19 0-34-16-34-34v-63c0-19 15-34 34-34h150c19 0 34 15 34 34v63c0 18-15 34-34 34z m251 0h-150c-18 0-34-16-34-34v-63c0-19 16-34 34-34h150c19 0 34 15 34 34v63c0 18-15 34-34 34z m-653 183h150c19 0 34 15 34 34v62c0 19-15 34-34 34h-150c-19 0-34-15-34-34v-62c0-19 15-34 34-34z m252 0h150c19 0 34 15 34 34v62c0 19-15 34-34 34h-150c-19 0-34-15-34-34v-62c0-19 15-34 34-34z m-126-27c-19 0-34-15-34-34v-62c0-19 15-34 34-34h150c19 0 34 15 34 34v62c0 19-15 34-34 34h-150z m218-34v-62c0-19 15-34 33-34h151c18 0 34 15 34 34v62c0 19-16 34-34 34h-151c-18 0-33-15-33-34z m613 469l-25 25c-6 6-14 9-23 9-8 0-16-3-22-9l-84-84c-11-11-12-28-3-41l-93-93-47 48c-5 5-13 8-20 8-9 0-18-4-23-12l-69-103c-7-11-13-30-14-44l-1-72c-1-8 3-16 8-22 6-6 14-9 22-9l73 1c14 1 33 7 44 14l102 69c8 5 12 12 13 21s-2 16-8 22l-48 47 93 93c5-4 12-6 19-6 8 0 16 3 22 9l84 84c6 6 9 14 9 22 0 9-3 17-9 23z m-224-297c-5-11-24-14-34-24-9-8-13-27-26-33-12-5-29 4-41 3-14-1-29-13-40-8-14 5-15 22-21 34-5 12-17 25-12 38 5 11 23 15 34 25 9 8 13 26 25 32 13 6 29-4 42-3 14 2 29 13 40 9 13-5 15-23 20-35 6-11 18-25 13-38z" horiz-adv-x="1000" />

<glyph glyph-name="construction-palette" unicode="&#xe826;" d="M984 723c-17 25-45 39-75 39-18 0-36-5-51-16l-190-114 0-1c-33-22-46-63-36-99 1-5 5-14-7-21l-78-52c-18-12-32-37-32-59l-1-130c0-4-6-11-9-14-5-4-13-14-23 1-23 34-93 136-93 136-8 12-20 18-32 18-12 0-23-5-32-16l-316-413c-12-15-9-26-7-32 3-4 9-12 24-12 3 0 6 0 9 1l543 86c14 3 24 10 29 21 5 11 3 24-5 35 0 0-54 79-73 108-13 17-2 22-2 22 21 11 36 36 36 59l2 130c0 5 5 15 10 18l84 55c11 7 18 3 22 1 12-5 25-8 38-8 19 0 37 5 52 15l189 115 1 0c41 29 51 86 23 127z" horiz-adv-x="1000" />

<glyph glyph-name="crane" unicode="&#xe828;" d="M998 507l-57 111-27 55c-3 7-8 10-15 10h-471l-52 155c-1 7-8 12-15 12h-55c-6 0-13-5-15-12l-53-155h-38v17c0 10-7 16-17 16h-83c-8 0-17-8-17-16v-50h-66c-10 0-17-7-17-17v-33c0-47 37-83 83-83v-50c0-10 7-17 17-17h83c10 0 17 7 17 17v16h33v-599h-100c-10 0-16-7-16-17s6-17 16-17h117 166 200c10 0 17 7 17 17s-7 17-17 17h-183v599h383v-176c-22-24-33-55-33-87v-20c0-10 6-16 16-16h17v-34c0-10 7-16 17-16 18 0 33-15 33-34s-15-33-33-33-34 15-34 33c0 10-6 17-16 17-10 0-17-7-17-17 0-36 30-66 67-66s66 30 66 66c0 32-21 57-50 65v19h17c10 0 17 6 17 16v20c0 32-12 63-34 87v176h134c5 0 11 4 15 9 3 5 3 10 0 15z m-765 10h-33v133h33v-133z m85 299h32l48-143-65-45-63 45 48 143z m15-711l-57 45 57 45 57-45-57-45z m2-41l56-47-58-53-57 53 59 47z m-59 219l57 45 57-45-57-45-57 45z m0 134l57 45 57-45-57-45-57 45z m2 131l55 39 55-39-55-43-55 43z m-12 87l39-27-39-26v53z m0-135v15l40-32-40-31v48z m0-118l40-32-40-32v64z m0-134l40-31-40-32v63z m0-133l40-31-40-32v63z m0-135l42-38-42-38v76z m27-96l40 36 40-36h-80z m107 20l-42 38 42 38v-76z m0 148l-40 32 40 31v-63z m0 133l-40 32 40 31v-63z m0 133l-40 32 40 32v-64z m0 182v-48l-40 31 40 32v-15z m0 82l-39 26 39 27v-53z m398 68l-32-40-32 40h64z m-134 0l-31-40-32 40h63z m-133 0l-31-40-32 40h63z m-98-10l45-57-45-56v113z m35-123l32 40 31-40h-63z m53 66l45 57 45-57-45-56-45 56z m80-66l32 40 31-40h-63z m54 66l44 57 45-57-45-56-44 56z m79-66l32 40 32-40h-64z m99 10l-45 56 53 67h48l19-35-75-88z m36-10l55 65 34-65h-89z" horiz-adv-x="1000" />

<glyph glyph-name="crane-1" unicode="&#xe829;" d="M668-57c0 2 0 2-1 4-2 3-2 6-2 11 0 5 0 9 2 12 0 2 0 2 1 3 0 4 2 5 4 9 0 0 0 0 0 1h-379c0 0 0 0 0-1 2-4 2-5 4-9 0-1 0-1 1-3 0-3 0-7 0-12 0-5 0-8-1-11 0-2 0-4 0-4 0-3-2-5-4-8 0 0 0 0 0-2h379c0 0 0 0 0 2-2 3-2 5-4 8z m54 40c-2 0-4 0-5 0-4 0-5-1-7-3 0 0 0 0-2 0-1-2-3-3-5-5 0 0 0 0 0-2-1-1-3-3-3-6 0 0 0 0 0-2s-2-5-2-8 2-4 2-7c2-2 2-5 3-7 0 0 0 0 0-1 2-2 4-4 5-5 0 0 0 0 2 0 2-2 5-2 7-4 1 0 3 0 5 0 13 0 25 12 25 25s-12 25-25 25z m-459-16c0 0 0 0 0 1-1 2-1 5-3 7 0 0 0 0 0 2-2 1-3 3-5 5 0 0 0 0-2 0-3 0-5 0-8 1-2 0-3 0-5 0-13 0-25-11-25-25s12-25 25-25c2 0 3 0 5 0 3 0 5 2 7 4 0 0 0 0 1 0 2 1 4 3 5 5 0 0 0 0 0 1 2 2 4 4 4 7 0 0 0 0 0 2 3 1 3 3 3 6 0 4 0 5-2 9z m569 398v18h16c10 0 17 7 17 17s-7 17-17 17h-16v301c30 7 53 34 53 65 0 37-30 67-67 67-35 0-61-27-66-60l-347-373h-7c-28 0-50-22-50-50v-117h-66v-33c0-37-30-67-67-67h-100v-50c0-10 7-17 17-17h250v-16h-159c-60 0-108-49-108-109 0-60 48-108 108-108h517c60 0 108 48 108 108 0 60-48 109-108 109h-158v16h50c10 0 16 7 16 17v45l-160 57c-33 11-56 43-56 80v101h33v-103c0-22 13-40 33-48l150-52v117c0 15-3 30-8 45-10 26-30 46-52 60l210 281v-266h-16c-10 0-17-7-17-17s7-17 17-17h16v-33c0-5 2-8 5-12 4-3 7-5 12-5 18 0 33-15 33-33 0-18-15-33-33-33s-33 15-33 33c0 10-7 17-17 17s-17-7-17-17c0-37 30-67 67-67 37 0 67 30 67 67 0 32-22 57-50 65z m-117-348c2 0 2 0 3 0s4 0 5 0c32 0 59-27 59-59 0-31-27-58-59-58-1 0-3 0-5 0s-1 0-3 0h-467c-1 0-1 0-3 0s-3 0-5 0c-32 0-58 27-58 58 0 32 26 59 58 59 2 0 3 0 5 0s3 0 3 0h467z m-167 66v-16h-133v16h133z m7 330c-2 0-2 0-3 0-4 0-5 2-9 2-5 0-10 2-15 2h-63-15l32 33 111 15-38-52z m-37 75l90 97 5-83-95-14z m127 44l-5 78 70 8-65-86z m20 115l58 63 5-55-63-8z m93 38l-5 57 9 8c0 0 0-2 1-2 2-1 2-3 4-5l1-1c5-7 12-12 20-17l-30-40z m-575-435c-36 0-66-30-68-67h100c18 0 33 15 33 34v33h-65z" horiz-adv-x="1000" />

<glyph glyph-name="crane-truck" unicode="&#xe82a;" d="M958 230h-362v419h289v-127h-9c-4 0-8-2-10-6l-25-43c-2-4-2-9 0-12l25-44c2-3 6-5 10-5h5c5 0 9 3 9 8v11c0 5-4 9-9 9h-7v42h54v-42h-7c-5 0-9-4-9-9v-11c0-5 4-8 9-8h5c4 0 9 2 11 5l25 44c2 3 2 8 0 12l-25 43c-2 4-7 6-11 6h-8v133c0 15-13 28-28 28h-321-101c-1 0-2 0-2 0-15-1-26-13-26-28v-425h-47c-9 0-12 2-13 2 0 1 0 2 0 2l0 296-1 2c-4 15-17 26-33 26h-18c-13 0-24 0-24 0h-110c-31 0-46-16-58-39-3-5-35-58-67-114-69-121-69-133-69-139v-84c0-31 25-56 56-56h48c0-2 0-4 0-5 0-57 47-104 104-104 57 0 104 47 104 104 0 1 0 3-1 5h229c0-2 0-4 0-5 0-57 47-104 104-104 57 0 103 47 103 104 0 1 0 3 0 5h3c0-2 0-4 0-5 0-57 47-104 104-104 57 0 103 47 103 104 0 1 0 3 0 5h1c24 0 42 14 42 32v39c0 18-18 33-42 33z m-750-159c-28 0-50 22-50 50 0 27 22 50 50 50 28 0 50-23 50-50 0-28-22-50-50-50z m111 317c0-14-11-25-24-25h-168c-6 0-10 1-11 4-1 2-1 6 2 10 3 5 44 73 57 98 13 27 28 29 48 29h81c9 0 15 0 15-43v-73z m154 101h90v-54h-90v54z m90 160v-127h-90v127h90z m-90-247h90v-172h-90v172z m171-331c-28 0-50 22-50 50 0 27 22 50 50 50 27 0 50-23 50-50 0-28-23-50-50-50z m210 0c-28 0-50 22-50 50 0 27 22 50 50 50s50-23 50-50c0-28-23-50-50-50z" horiz-adv-x="1000" />

<glyph glyph-name="derrick-facing-right" unicode="&#xe82d;" d="M902-118h-279v66c0 10-9 19-20 19h-67v59c0 10-9 19-20 19h-50v508h170v-352-16-9c0-11 8-20 19-20h9v-21c0-6 5-10 11-10 0 0 1 0 1 0 0 0 1 0 1 0 9 0 16-8 16-17 0-9-7-16-16-16-5 0-10 3-13 7-4 5-10 6-15 2-5-3-6-10-3-15 7-10 19-15 31-15 21 0 38 16 38 37 0 18-13 33-29 37v11h14c10 0 19 9 19 20v9 16 352h61c11 0 14 7 15 9 0 2 2 9-7 15l-65 41c-5 4-15 6-21 6h-105l-207 203v4c0 10-8 19-19 19h-32c-10 0-19-9-19-19v-10l-201-197h-18c-10 0-19-8-19-19v-33c0-11 9-19 19-19h143v-508h-50c-11 0-19-9-19-19v-59h-68c-11 0-20-9-20-19v-78c0-6 3-11 8-15 3-3 7-5 12-5h795c9 0 16 7 16 16 0 9-7 16-16 16z m-479 397l-132 70 132 79v-149z m-135 106v146l123-73-123-73z m0-71l122-64-122-76v140z m135-94v-139l-131 58 131 81z m0 269l-109 64h109v-64z m274-268h-40v332h40v-332z m-146 403h-113v12c0 10-8 19-19 19h-29v127l161-158z m-231 152v-121h-23c-11 0-19-9-19-19v-12h-113l155 152z m-32-670l135-60v-1h-135v61z" horiz-adv-x="1000" />

<glyph glyph-name="derrick-with-ball" unicode="&#xe82e;" d="M603 147c-19 0-35-16-35-35 0-20 16-35 35-35 19 0 35 15 35 35 0 19-16 35-35 35z m128 0c-19 0-35-16-35-35 0-20 16-35 35-35 20 0 35 15 35 35 0 19-15 35-35 35z m128 0c-19 0-35-16-35-35 0-20 16-35 35-35 20 0 36 15 36 35 0 19-16 35-36 35z m40 66h-335c-63 0-101-39-101-101 0-62 38-101 101-101h335c62 0 101 39 101 101 0 62-39 101-101 101z m0-161h-335c-40 0-60 20-60 60 0 39 20 59 60 59h335c40 0 60-20 60-59 0-40-20-60-60-60z m-425 190h128 52 201c32 0 57 25 57 56v272c0 31-25 57-57 57h-207c-30 0-59-24-66-53l-27-101 0-1c-6-25-10-67-10-93v-27l-374 331c-4 4-10 6-17 6-7 0-13-2-18-7l-16-16c-10-10-10-26-1-36l0 0v-294c-66-5-119-61-119-129 0-71 58-129 129-129s130 58 130 129c0 68-53 124-119 129v271l312-353c2-2 12-12 22-12z m-136 266l85-75-122 38 37 37z m-163 90l-32 36 55-14-23-22z m44 15l70-62-94 37 24 25z m100-96l-39-38-72 82 111-44z m114-109l-48-47-76 86 124-39z m24-5l69-62-116 15 47 47z m209 55c3 6 3 13 0 19-2 6-7 10-13 13-3 1-6 2-9 2-10 0-18-6-22-15l-17-40c-4 4-6 10-5 17l25 98 0 1c3 14 17 25 31 25h183c13 0 24-10 24-24v-98c0-13-11-24-24-24h-184l11 26z m-512 211c2 0 3-1 4-2l25-22-43 11 11 11c1 1 2 2 3 2z m253-333l108-14-51-50-57 64z" horiz-adv-x="1000" />

<glyph glyph-name="derrick-with-box-1" unicode="&#xe830;" d="M971 640c16 2 29 15 29 32v40c0 18-14 32-32 32h-936c-18 0-32-14-32-32v-40c0-16 12-29 28-31-1-2-1-4 0-5l34-576h-30c-18 0-32-14-32-32v-40c0-18 14-32 32-32h936c18 0 32 14 32 32v40c0 18-14 32-32 32h-32l35 576c0 1 0 3 0 4z m-911-17l136-127c2-2 3-3 3-3 0-1-1-2-4-3l-123-55-12 188z m16-266l60-62c6-6 6-15 0-21l-51-54-9 137z m49-141l-34-106-4 66 38 40z m33 103l-76 78c-2 2-3 4-3 5 1 1 2 2 4 3l119 53-44-139z m63 197c-1 2-2 2-3 3l-129 121h171l-39-124z m689 124l-127-120c-2-2-3-3-5-5l-40 125h172z m-114-181l119-54c3-1 4-2 4-3 0-1 0-3-2-5l-76-80-45 142z m68-185c-5 6-5 16 0 21l58 61-8-136-50 54z m47-98l-4-66-34 108 38-42z m16 259l-121 55c-3 1-4 2-4 3 0 0 0 1 2 3l134 127-11-188z m-818-375l182 573c1 3 2 5 2 7h19v-15c0-18 14-32 32-32h42v-189c0 0 0 0 0 0l-83-88h-3c-13 0-23-11-23-23v-70c0-13 10-23 23-23h207c13 0 23 10 23 23v70c0 12-10 23-23 23h-4l-82 88c-1 1-2 1-3 2v187h45c17 0 32 14 32 32v15h211c0-2 1-4 1-7l183-573h-781z m238 256l57 60 56-60h-113z" horiz-adv-x="1000" />

<glyph glyph-name="derrick-with-boxes" unicode="&#xe831;" d="M313 129h-258c-15 0-27-12-27-27v-225c0-15 12-27 27-27h258c15 0 27 12 27 27v225c0 15-12 27-27 27z m204 0h-96c-14 0-26-12-26-27v-225c0-15 12-27 26-27h96c15 0 27 12 27 27v225c0 15-12 27-27 27z m425-171h-72c-3 0-5 2-5 5v566h14c15 0 27 12 27 27v127c0 15-12 27-27 27h-168l-449 139c-2 1-5 1-8 1-13 0-24-11-24-25v-55c0-15 11-30 25-35l9-3v-252c-1-1-2-2-4-3l-109-88h-1c-15 0-27-12-27-27v-160c0-15 12-27 27-27h249c15 0 27 12 27 27v160c0 15-12 27-27 27h-1l-109 88c-1 1-2 2-3 3v245l396-132v-37c0-15 12-27 27-27h19v-566c0-3-3-5-5-5h-78c-16 0-29-13-29-29v-42c0-16 13-30 29-30h297c17 0 30 14 30 30v42c0 16-13 29-30 29z m-578 431h-178l88 71c0 0 1 0 2 0l88-71z" horiz-adv-x="1000" />

<glyph glyph-name="derrick-with-load" unicode="&#xe832;" d="M796 296h-12l-179 146c11 17 17 38 17 61 0 58-43 106-99 114v109h113c11 0 20 9 20 19v85c0 11-9 20-20 20h-272c-11 0-20-9-20-20v-85c0-10 9-19 20-19h113v-131c0-13 10-24 23-24 1 0 2 1 3 1 1 0 3-1 4-1 38 0 68-30 68-68 0-12-2-22-7-32l-27 22c-20 16-47 27-63 14l-13-10c-8-6-9-17-3-25 7-8 18-10 26-3l9 7c4-1 12-4 21-11l25-21c-10-6-23-10-36-10-22 0-43 10-56 28-8 10-22 13-33 5-10-7-12-22-5-32 22-30 57-48 94-48 28 0 54 10 74 27l145-118h-452l125 100c8 6 9 18 3 26-7 8-18 9-26 3l-160-129h-11c-15 0-27-12-27-27v-392c0-15 12-27 27-27h591c14 0 27 12 27 27v392c0 15-13 27-27 27z" horiz-adv-x="1000" />

<glyph glyph-name="derrick-with-pallet" unicode="&#xe833;" d="M874-101h-11c-9 0-16 7-16 16v78c0 9 7 17 16 17h11c22 0 39 10 39 24 0 14-17 24-39 24h-101l-208 167c0 3 0 7 0 12 0 40-28 74-66 83v24h21c9 0 16 7 16 16v23h83c9 0 19 6 24 14l83 144c5 8 5 19 0 27l-83 144c-5 8-15 14-24 14h-83c0 1 0 1 0 2v40c0 9-7 16-16 16h-11v50c0 9-7 16-16 16h-29c-9 0-16-7-16-16v-50h-11c-9 0-16-7-16-16v-40c0-1 0-1 0-2h-83c-9 0-19-6-24-14l-83-144c-4-8-4-19 0-27l83-144c5-8 15-14 24-14h79v-23c0-9 7-16 16-16h20v-45c0-13 10-23 23-23 1 0 1 0 2 0 1 0 2 0 2 0 13 0 24-6 31-14-11 3-22 2-30-4l-9-8c-7-6-8-17-2-24 6-8 17-9 24-2l6 5c3-1 8-3 13-7l3-2c-7-14-20-23-36-23-12 0-24 6-31 16-8 11-22 13-32 6-11-8-13-22-5-32 16-22 41-35 68-35 30 0 57 15 72 39l166-133h-420l93 79c8 6 9 17 3 24-7 7-17 8-25 2l-124-105h-119c-22 0-39-10-39-24 0-14 16-24 39-24 8 0 15-8 15-17v-78c0-9-7-16-15-16-23 0-39-11-39-25 0-14 17-24 39-24h748c22 0 39 10 39 24 0 14-17 25-39 25z m-570 16v78c0 9 7 17 16 17h77c8 0 16-8 16-17v-78c0-9-8-16-16-16h-77c-9 0-16 7-16 16z m271 0v78c0 9 8 17 16 17h77c9 0 16-8 16-17v-78c0-9-7-16-16-16h-77c-8 0-16 7-16 16z" horiz-adv-x="1000" />

<glyph glyph-name="derrick-with-tong" unicode="&#xe834;" d="M974 792h-614c-24 35-64 58-110 58-74 0-134-60-134-134 0-53 30-99 75-121v-149c0-2 0-3 1-5l-56-72c-6-8-7-17-3-24 3-8 11-12 21-12h191c10 0 18 4 22 12 4 7 2 16-4 24l-58 76c0 0 0 0 0 1v148c35 16 62 46 73 83h596c15 0 26 12 26 26v63c0 14-11 26-26 26z m-724-144c-38 0-68 30-68 68 0 37 30 68 68 68s68-31 68-68c0-38-31-68-68-68z m141-375c-7 13-24 22-38 22h-206c-15 0-31-9-38-22l-104-178c-7-13-7-32 0-44l104-179c7-12 23-22 38-22h22c17 0 31 14 31 31v45c0 18-14 32-31 32h-30c-2 0-3 1-3 2v177c0 2 1 3 3 3h222c1 0 3-1 3-3v-177c0-1-2-2-3-2h-30c-17 0-31-14-31-32v-45c0-17 14-31 31-31h22c14 0 31 10 38 22l103 179c7 12 7 31 0 44l-103 178z" horiz-adv-x="1000" />

<glyph glyph-name="door-2" unicode="&#xe837;" d="M950-117h-100v950c0 10-7 17-17 17h-666c-10 0-17-7-17-17v-950h-100c-9 0-17-7-17-16s8-17 17-17h117 50 33 500 33 50 117c9 0 17 7 17 17s-8 16-17 16z m-233 400c0-9-8-16-17-16h-67c-9 0-16 7-16 16v17h-34c-9 0-16 7-16 17s7 16 16 16h34v17c0 9 7 17 16 17h67c9 0 17-8 17-17v-67z m0 184c0-10-8-17-17-17h-400c-9 0-17 7-17 17v233c0 9 8 17 17 17h400c9 0 17-8 17-17v-233z m66-584h-33v867h-500v-867h-33v884c0 9 7 16 16 16h534c9 0 16-7 16-16v-884z m-116 800h-67c0-9-7-16-17-16-9 0-16 7-16 16h-67c0-9-7-16-17-16-9 0-16 7-16 16h-67c0-9-7-16-17-16-9 0-16 7-16 16h-50v-50c0 10 7 17 16 17s17-7 17-17-7-16-17-16-16 7-16 16v-100c0 10 7 17 16 17s17-7 17-17-7-16-17-16-16 7-16 16v-50h50c0 10 7 17 16 17 10 0 17-7 17-17h67c0 10 7 17 16 17 10 0 17-7 17-17h67c0 10 7 17 16 17 10 0 17-7 17-17h67c0 10 7 17 16 17v67c-9 0-16 7-16 16 0 10 7 17 16 17v67c-9 0-16 7-16 16z m-284-116c-9 0-16 7-16 16 0 10 7 17 16 17 10 0 17-7 17-17 0-9-7-16-17-16z m50-50c-9 0-16 7-16 16s7 17 16 17 17-7 17-17-7-16-17-16z m0 100c-9 0-16 7-16 16s7 17 16 17 17-7 17-17-7-16-17-16z m50-50c-9 0-16 7-16 16 0 10 7 17 16 17 10 0 17-7 17-17 0-9-7-16-17-16z m50-50c-9 0-16 7-16 16s7 17 16 17 17-7 17-17-7-16-17-16z m0 100c-9 0-16 7-16 16s7 17 16 17 17-7 17-17-7-16-17-16z m50-50c-9 0-16 7-16 16 0 10 7 17 16 17 10 0 17-7 17-17 0-9-7-16-17-16z m50-50c-9 0-16 7-16 16s7 17 16 17 17-7 17-17-7-16-17-16z m0 100c-9 0-16 7-16 16s7 17 16 17 17-7 17-17-7-16-17-16z" horiz-adv-x="1000" />

<glyph glyph-name="doors-open" unicode="&#xe839;" d="M974 827h-948c-14 0-26-12-26-26v-902c0-14 12-26 26-26h4c14 0 26 12 26 26v219h38v-199c0-12 9-21 20-21 1 0 1 0 2 0l304 24c11 1 20 11 20 22v702c0 11-8 21-19 22l-304 48c-1 1-2 1-3 1-12 0-20-9-20-20v-99h-38v170c0 1 1 2 3 2h882c2 0 3-1 3-2v-170h-37v99c0 11-9 20-20 20-2 0-3 0-4-1l-304-48c-10-1-19-11-19-22v-702c0-11 9-21 20-22l304-24c1 0 1 0 2 0h0c5 0 11 2 14 6 4 4 7 9 7 15v199h37v-219c0-14 12-26 26-26h4c14 0 26 12 26 26v902c0 14-12 26-26 26z m-594-460c0 6 5 12 12 12 6 0 12-6 12-12v-107c0-7-6-12-12-12-7 0-12 5-12 12v107z m-286 157v-333h-38v333h38z m529-264c0-7-5-12-12-12-7 0-12 5-12 12v107c0 6 5 12 12 12 7 0 12-6 12-12v-107z m321-69h-37v333h37v-333z" horiz-adv-x="1000" />

<glyph glyph-name="double-ladder" unicode="&#xe83a;" d="M860-119l-218 942c0 2-1 3-2 5-3 13-15 22-28 22h-35c-8 0-16-3-21-9-5-5-8-13-7-20l2-46h-270l2 46c0 7-2 15-8 20s-12 9-20 9h-35c-16 0-29-13-30-28l-50-943c-1-7 2-15 7-20s13-9 21-9h35c16 0 29 13 30 28l2 47h361l3-47c1-15 14-28 30-28h35c8 0 15 3 20 9 5 5 8 13 8 20l-26 489 112-492c3-15 17-26 32-26h25c8 0 15 3 20 9 5 6 6 14 5 22z m-612 277l4 76h328l4-76h-336z m8 154l4 76h312l4-76h-320z m8 154l4 76h295l4-76h-303z m295 155h-287l4 75h279l4-75z m-315-541h344l4-76h-352l4 76z" horiz-adv-x="1000" />

<glyph glyph-name="drawing-compass" unicode="&#xe83d;" d="M862-128l-11 52c-3 11-8 26-13 36l-113 213h23c16 0 28 13 28 28v3c0 16-12 29-28 29h-55l-133 250c46 22 79 70 79 125 0 69-51 127-117 137v83c0 12-10 22-22 22-12 0-22-10-22-22v-83c-66-10-117-68-117-137 0-55 33-103 79-125l-132-250h-56c-15 0-28-13-28-29v-3c0-15 13-28 28-28h24l-114-213c-5-10-10-25-13-36l-11-52c0-3-2-11 3-17 2-3 6-5 10-5 5 0 9 2 14 8l33 35c7 8 17 22 22 31l132 249h110v-23c0-16 13-28 29-28h18c16 0 29 12 29 28v23h110l132-249c5-9 15-23 22-31l33-35c5-5 10-8 14-8 0 0 0 0 0 0 4 0 8 2 11 5 4 6 3 14 2 17z m-460 736c0 54 44 98 98 98 54 0 98-44 98-98 0-54-44-98-98-98-54 0-98 44-98 98z m136-375v23c0 15-13 28-28 28h-19c-16 0-29-13-29-28v-23h-78l116 218 116-218h-78z" horiz-adv-x="1000" />

<glyph glyph-name="drill-1" unicode="&#xe83f;" d="M467 591v-98h98c-9 45-53 89-98 98z m533-515h-83c-9 0-17 8-17 17 0 9 8 16 17 16h83v34h-83c-9 0-17 7-17 16 0 10 8 17 17 17h83v68l-17 251-15 141c-1 7-3 14-7 21-10 22-33 36-57 36h-4c-43 0-86 5-128 14-96 23-254 23-351 0-44-10-79-41-95-81h-76c-37 0-67-30-67-67h-166c-9 0-17-7-17-16 0-9 8-17 17-17h166c0-37 30-67 67-67h76c16-40 51-71 95-81 86-20 220-22 317-6l29-101c2-7 9-12 16-12h34v-114c0-19-7-36-20-49-20-19-30-45-30-72 0-26 21-48 48-48h135c28 0 50 22 50 50l0 50z m-683 500v-67-16h-67c-18 0-33 15-33 33v33c0 19 15 34 33 34h67v-17z m266-117h-133c-9 0-17 8-17 17v133c0 10 8 17 17 17 76 0 150-74 150-150 0-9-7-17-17-17z m234-166h-21l-25 85 1 0h0l45 10v-95z m50 233h-100c-9 0-17 8-17 17 0 9 8 16 17 16h100c9 0 16-7 16-16 0-9-7-17-16-17z m0 67h-100c-9 0-17 7-17 16 0 10 8 17 17 17h100c9 0 16-7 16-17 0-9-7-16-16-16z" horiz-adv-x="1000" />

<glyph glyph-name="electricity" unicode="&#xe843;" d="M502 425c-3 6-3 12 1 17l100 158h-93l-131-233h82c5 0 10-3 13-8 4-4 4-10 2-15l-70-170 208 243h-97c-6 0-12 3-15 8z m-2 292c-202 0-367-165-367-367 0-202 165-367 367-367s367 165 367 367c0 202-165 367-367 367z m163-294l-300-350c-4-4-8-6-13-6-3 0-6 1-9 2-7 4-9 13-6 21l101 243h-86c-6 0-11 4-14 9-3 5-3 11 0 16l150 267c2 5 8 8 14 8h133c6 0 12-3 15-8 3-6 3-12-1-17l-100-158h103c7 0 12-4 15-10 3-6 2-13-2-17z m237 427h-800c-55 0-100-45-100-100v-800c0-55 45-100 100-100h800c55 0 100 45 100 100v800c0 55-45 100-100 100z m-800-67c18 0 33-15 33-33 0-18-15-33-33-33s-33 15-33 33c0 18 15 33 33 33z m0-866c-18 0-33 15-33 33s15 33 33 33 33-15 33-33-15-33-33-33z m400 33c-220 0-400 180-400 400s180 400 400 400 400-179 400-400-179-400-400-400z m400-33c-18 0-33 15-33 33s15 33 33 33c18 0 33-15 33-33s-15-33-33-33z m0 800c-18 0-33 15-33 33 0 18 15 33 33 33 18 0 33-15 33-33 0-18-15-33-33-33z" horiz-adv-x="1000" />

<glyph glyph-name="electric-tower" unicode="&#xe844;" d="M914 326l-117 167c0 0 0 0 0 0 0 0 0 0 0 0-1 2-3 3-4 4-1 0-1 0-1 1 0 0 0 0 0 0-2 1-4 1-6 2 0 0 0 0-1 0 0 0-1 0-2 0h-126l-15 67h91c7 0 12 3 15 9 3 5 3 12-1 17l-66 100c-4 4-9 7-14 7h-54l-30 137c0 0 0 1 0 1-1 1-1 1-1 2-1 1-1 2-2 4-1 0-1 0-1 1 0 0-1 0-1 0-1 1-2 2-3 3-1 0-1 0-2 1-1 0-2 0-4 1 0 0-1 0-2 0 0 0 0 0 0 0h-134c0 0 0 0 0 0-1 0-2 0-2 0-2-1-3-1-4-1-1-1-1-1-2-1-1-1-2-2-3-3 0 0-1 0-1 0 0-1 0-1-1-1 0-2-1-3-2-4 0-1 0-1 0-2-1 0-1-1-1-1l-30-137h-54c-5 0-10-3-13-7l-67-100c-4-5-4-12-1-17 3-6 9-9 15-9h91l-15-67h-126c-1 0-1 0-2 0-1 0-1 0-1 0-2-1-4-1-6-2 0 0 0 0 0 0 0-1 0-1-1-1-1-1-3-2-4-4 0 0 0 0 0 0 0 0 0 0 0 0l-117-167c-3-5-4-11-1-17 3-6 9-9 15-9h199l-62-283h-70c-9 0-17-8-17-17v-50h100c9 0 17-7 17-17s-8-16-17-16h-100v-50c0-10 8-17 17-17h666c10 0 17 7 17 17v50h-100c-9 0-17 7-17 16s8 17 17 17h100v50c0 9-7 17-17 17h-70l-62 283h199c6 0 12 3 15 9 3 6 2 12-1 17z m-361 341l-53-44-53 44h106z m-109 33l56 51 56-51h-112z m72-133l81-67h-194l81 67h32z m88-267l-104-47-104 47h208z m-242 33l138 128 138-128h-276z m314-198l-176-60-176 60 176 81 176-81z m-136 99l129 59 28-131-157 72z m113 131l-110 102h87l23-102z m5 302l44-67h-67l-15 67h38z m-41-140l-48 40h39l9-40z m-28 126l12-53h-73l-2 1 63 52z m-32 149l15-71-47 42 32 29z m-34 15l-23-21-23 21h46z m-79-15l31-29-47-42 16 71z m-33-149l63-52-2-1h-73l12 53z m-19-86h40l-49-40 9 40z m-94 33l44 67h38l-15-67h-67z m72-133h87l-110-102 23 102z m90-233l-157-72 29 131 128-59z m-328 99l84 120 74-120h-158z m115 134h89l-24-107-65 107z m24-450l21 94 157-54-118-40h-60z m162 0l67 23 67-23h-134z m275 94l21-94h-60l-118 40 157 54z m-20 249l-24 107h89l-65-107z m22-27l74 120 84-120h-158z" horiz-adv-x="1000" />

<glyph glyph-name="electric-tower-1" unicode="&#xe845;" d="M833 583h-266v84h83v-17c0-10 7-17 17-17s16 7 16 17v17h50c10 0 17 6 17 16v67c0 10-7 17-17 17h-166v26c0 32-25 57-57 57h-20c-32 0-57-25-57-57v-26h-166c-9 0-17-9-17-17v-67c0-10 7-16 17-16h50v-17c0-10 6-17 16-17 10 0 17 7 17 17v17h83v-84h-266c-10 0-17-6-17-16v-67c0-10 7-17 17-17h33v-16c0-10 7-17 17-17 10 0 16 7 16 17v16h84v-16c0-10 6-17 16-17 10 0 17 7 17 17v16h83v-483h50c10 0 17-7 17-17s-7-16-17-16h-50v-17h50c10 0 17-7 17-17s-7-16-17-16h-50v-34h-33c-10 0-17-6-17-16s7-17 17-17h50 100 50c10 0 17 7 17 17s-7 16-17 16h-33v600h83v-16c0-10 7-17 17-17s16 7 16 17v16h84v-16c0-10 6-17 16-17s17 7 17 17v16h33c10 0 17 7 17 17v67c0 8-7 16-17 16z m-550 117v33h167 100 167v-33h-167-100-167z m534-183h-267-100-267v33h267 100 267v-33z" horiz-adv-x="1000" />

<glyph glyph-name="engineer" unicode="&#xe846;" d="M951 20c-100 53-177 82-245 93l8 11c2 4 3 9 2 13l-15 62c41 59 66 132 66 201v67h16 34c9 0 16 7 16 16 0 10-7 17-16 17h-17v17c0 46-11 90-30 129l-150-29c-1 0-2 0-3 0-5 0-9 1-12 5-4 3-6 9-5 15l28 143c-14 6-29 12-45 16v4c0 28-22 50-50 50h-66c-28 0-50-22-50-50v-4c-16-4-30-10-45-16l28-143c1-6-1-12-5-15-3-4-7-5-12-5-1 0-2 0-3 0l-149 29c-20-39-31-83-31-129v-17h-17c-9 0-16-7-16-17 0-9 7-16 16-16h34 16v-67c0-69 25-142 66-201l-15-62c-1-4 0-9 3-13l7-11c-68-11-144-40-244-93-31-16-50-48-50-82v-71c0-10 8-17 17-17h400 0 6c0 0 0 0 0 0l153 0c1 0 1 0 1 0h406c10 0 17 7 17 17v71c0 34-19 66-49 82z m-684 380v67h466v-67c0-75-26-141-65-191-1 0-2 0-2-1-6-7-12-14-18-21 0 0 0 0 0 0-4-4-8-8-13-12-40-37-89-58-135-58-46 0-95 21-135 58-4 4-9 8-13 12 0 0 0 0 0 0-6 7-12 14-18 21 0 1-1 1-1 1-40 50-66 116-66 191z m51-263l8 30c0 0 0 0 0 0 40-44 91-75 149-82 0 0 0 0 0 0l-45-102-112 154z m119-254l10 50h106l4-21 6-29-126 0z m133 100l-45 102c0 0 0 0 0 0 58 7 109 38 149 82 0 0 0 0 1 0l7-30-112-154z m89 781l-21-110 114 22c-24 36-56 65-93 88z m-317 0c-38-23-70-52-94-88l114-22-20 110z" horiz-adv-x="1000" />

<glyph glyph-name="eolic-energy" unicode="&#xe847;" d="M640 568l186 204c8 10 8 25-1 34l-37 37c-9 9-24 10-34 1l-204-186c-13-11-21-28-22-45-9 3-18 4-28 4-10 0-19-1-28-4-1 17-8 34-21 45l-205 186c-10 8-25 8-34-1l-37-37c-9-9-9-24-1-34l186-204c11-13 27-21 44-21-2-10-4-20-4-30 0-12 2-23 6-34-16-1-30-8-41-20l-181-200c-11-13-11-32 1-44l27-27c7-6 15-9 23-9 7 0 15 2 21 8l182 164-36-372h-69c-9 0-16-7-16-16v-100c0-10 7-17 16-17h334c9 0 16 7 16 17v100c0 9-7 16-16 16h-68l-36 373 182-165c6-6 13-8 21-8 8 0 16 3 22 9l27 27c12 12 13 31 1 44l-181 200c-10 12-25 19-41 20 4 11 6 22 6 34 0 10-1 20-4 30 17 0 33 8 44 21z m-75-585h-130l42 437c4-1 8-2 11-2 0 0 1 0 1 0 3-1 7-1 11-1 4 0 8 0 11 1 1 0 1 0 1 0 4 0 7 1 11 2l42-437z m-35 475c0 0 0 0 0 0-20-10-40-10-60 0 0 0 0 0 0 0-22 11-37 33-37 59 0 37 30 67 67 67s67-30 67-67c0-26-15-48-37-59z" horiz-adv-x="1000" />

<glyph glyph-name="flash" unicode="&#xe84a;" d="M782 507c-3 6-9 10-15 10h-198l195 307c3 6 4 12 1 17-3 6-9 9-15 9h-267c-6 0-12-4-15-9l-250-500c-2-5-2-11 1-16 3-5 9-8 14-8h172l-187-444c-3-7 0-16 7-21 2-1 5-2 8-2 5 0 10 2 13 6l533 633c5 5 6 12 3 18z" horiz-adv-x="1000" />

<glyph glyph-name="flashlight" unicode="&#xe84b;" d="M500 83c46 0 83 38 83 84v133c0 46-37 83-83 83-46 0-83-37-83-83v-133c0-46 37-84 83-84z m-50 150c1 0 1 0 2-1 1-1 3-2 4-3 3-1 6-3 9-4 2-1 3-2 5-2 3-2 7-3 10-4 2 0 3 0 5-1 5-1 10-1 15-1 5 0 10 0 16 1 1 1 3 1 4 1 4 1 7 2 10 4 2 0 3 1 5 2 3 1 6 3 9 4 1 1 3 2 4 3 1 1 1 1 2 1v-66c0-28-22-50-50-50s-50 22-50 50v66z m183 534h84v33c0 28-23 50-50 50h-334c-27 0-50-22-50-50v-33h84c9 0 16-8 16-17s-7-17-16-17h-84v-83h434v83h-84c-9 0-16 8-16 17s7 17 16 17z m-66-34h-134c-9 0-16 8-16 17s7 17 16 17h134c9 0 16-8 16-17s-7-17-16-17z m-217-306v-527c0-28 22-50 50-50h200c28 0 50 22 50 50v527c55 56 66 95 67 190h-434c1-95 12-134 67-190z m33-10h234v-517c0-9-8-17-17-17h-200c-9 0-17 8-17 17v517z" horiz-adv-x="1000" />

<glyph glyph-name="garbage-truck" unicode="&#xe84e;" d="M474 495h472c11 0 19 4 22 12 3 6 1 13-3 17l-190 206-1 1c-17 17-47 46-74 46-2 0-5 0-7-1-24-5-61-47-75-64-3 0-6 1-9 1-24 0-46-14-55-35l-99-157 0-1 0 0c-1-3-5-10 0-17 5-8 16-8 19-8z m499-30h-69-251-196c-5 0-10 2-14 6-4 4-6 9-6 14 0 11-4 22-12 30-8 8-19 12-30 12h-187c-12 0-22-5-27-13-6-9-5-20 0-31l13-25c10-19 34-34 55-34h143c11 0 20-9 20-20v-316h-35v269l-1 2c-3 14-17 25-31 25h-17c-12 0-22 0-22 0h-102c-31 0-44-18-54-37-3-4-33-52-62-102-64-109-64-126-64-132v-25c-14-1-24-13-24-26v-13c0-14 12-26 27-26h104c0-1 0-2 0-3 0-54 44-97 97-97 53 0 97 43 97 97 0 1 0 2 0 3h333c0-1 0-2 0-3 0-54 44-97 97-97 53 0 97 43 97 97 0 1 0 2 0 3h0c15 0 27 12 27 26v13c0 14-12 26-27 26h-29c-5 5-10 9-15 12l117 152c12 15 21 43 21 62v86h27c15 0 27 12 27 26v12c0 15-12 27-27 27z m-745-492c-25 0-46 21-46 47 0 25 21 46 46 46 26 0 46-21 46-46 0-26-20-47-46-47z m91 252c0-12-10-22-22-22h-155c-5 0-8 1-9 3-2 2-1 6 1 10 3 4 41 67 53 90 12 25 25 27 44 27h65c14 0 23 0 23-40v-68z m436-252c-25 0-46 21-46 47 0 25 21 46 46 46 26 0 46-21 46-46 0-26-20-47-46-47z" horiz-adv-x="1000" />

<glyph glyph-name="garden-fence" unicode="&#xe84f;" d="M977 421c13 0 23 11 23 23v76c0 13-10 23-23 23h-71v153c0 9-4 20-10 26l-33 37c-4 5-10 7-16 7-6 0-12-2-16-7l-33-37c-5-6-10-17-10-26v-153h-113v153c0 9-4 20-10 26l-33 37c-4 5-10 7-16 7-6 0-12-2-16-7l-33-37c-6-6-10-17-10-26v-153h-114v153c0 9-4 20-10 26l-33 37c-4 5-10 7-16 7-6 0-12-2-16-7l-33-37c-5-6-10-17-10-26v-153h-113v153c0 9-4 20-10 26l-33 37c-4 5-10 7-16 7-6 0-12-2-16-7l-33-37c-6-6-10-17-10-26v-153h-71c-13 0-23-10-23-23v-76c0-12 10-23 23-23h71v-192h-71c-13 0-23-10-23-23v-76c0-12 10-22 23-22h71v-152c0-12 10-22 23-22h72c13 0 23 10 23 22v152h113v-152c0-12 11-22 23-22h73c12 0 22 10 22 22v152h114v-152c0-12 10-22 23-22h72c13 0 23 10 23 22v152h113v-152c0-12 11-22 23-22h73c12 0 22 10 22 22v152h71c13 0 23 10 23 22v76c0 13-10 23-23 23h-71v192h71z m-652-192h-113v192h113v-192z m118 192h114v-192h-114v192z m232 0h113v-192h-113v192z" horiz-adv-x="1000" />

<glyph glyph-name="gas-pipe-7" unicode="&#xe857;" d="M983 150h-200v100h200c10 0 17 8 17 17 0 9-7 17-17 17h-200v50c0 9-7 16-16 16h-150v84c73 31 126 100 132 183h-49c-9 0-17 8-17 17s8 16 17 16h49c-8 107-93 191-199 200v-50c0-9-7-16-17-16s-16 7-16 16v50c-106-9-191-93-199-200h49c9 0 16-7 16-16s-7-17-16-17h-49c6-83 59-152 132-183v-84h-150c-9 0-17-7-17-16v-51c-157-9-283-138-283-295v-121c0-9 7-17 17-17s16 8 16 17v121c0 139 111 253 250 262v-96c-84-9-150-80-150-166v-121c0-9 8-17 17-17s17 8 17 17v121c0 68 51 124 116 132v-53c0-9 8-17 17-17h467c9 0 16 8 16 17v50h200c10 0 17 8 17 17 0 9-7 16-17 16z m-532 422l33 100c2 5 6 9 11 11l100 33c6 2 12 1 17-4 4-4 6-11 4-17l-33-100c-2-5-6-9-11-10l-100-34c-2 0-4-1-5-1-5 0-9 2-12 5-5 5-6 11-4 17z m82-155h1c-1 0-1 0-1 0 9 0 16 1 24 2 2 0 3 0 4 0 7 1 14 2 21 4 0 0 1 0 1 0v-73h-100v73c1 0 1 0 2 0 7-2 13-3 20-4 2 0 3 0 4 0 8-1 16-2 24-2 0 0 0 0 0 0z m-16 34v16c0 9 7 17 16 17s17-8 17-17v-16c-11-1-22-1-33 0z m166-301c0-9-7-16-16-16h-267c-9 0-17 7-17 16v100c0 10 8 17 17 17h267c9 0 16-7 16-17v-100z" horiz-adv-x="1000" />

<glyph glyph-name="hammer" unicode="&#xe85a;" d="M806 833h-83c-9 0-18-3-24-10-6-6-10-15-10-23-17 0-19 2-29 12-5 4-10 9-18 15-20 15-44 23-70 23h-86c-50 0-74-1-120-18-99-37-163-112-221-259-3-8 0-16 7-20 2-2 5-3 9-3 4 0 8 2 11 5l15 15c53 53 79 80 174 80 44 0 78-36 78-83v-184h167v169c12 2 20 8 29 16 2 1 4 3 6 5 8 6 14 11 19 15 10 10 12 12 29 13 0-9 3-17 9-23 6-7 15-11 25-11h83c28 0 50 22 50 50v166c0 28-22 50-50 50z m17-216c0-9-8-17-17-17l-83 0c0 8-3 16-9 22-6 7-16 11-25 11h0c-29 0-39-8-52-20-4-4-9-9-16-14-2-2-5-4-7-5-11-9-13-11-25-11h-118c-7 58-53 100-110 100-75 0-115-17-151-45 46 88 96 136 168 163 40 15 59 16 108 16h86c18 0 36-6 49-16 7-5 12-10 16-14 14-12 23-20 52-20 9 0 18 3 24 10 7 6 10 15 10 23h83c9 0 17-7 17-17v-166z m-384-584h67c9 0 16-7 16-16 0-9-7-17-16-17h-67v-33h67c9 0 16-8 16-17s-7-17-16-17h-67v-16c0-37 30-67 67-67h33c37 0 67 30 67 67v433h-167v-317z" horiz-adv-x="1000" />

<glyph glyph-name="hammer-1" unicode="&#xe85b;" d="M950 783h-83c-10 0-19-4-25-10-6-7-9-15-9-23-17 0-19 2-29 12-5 4-10 9-17 14-20 16-45 24-71 24h-99c-81 0-168-50-221-126l-10-14c-4-6-4-14 1-20 4-6 12-8 19-6 1 1 99 36 149 1 19-13 28-36 28-68 0-1 0-2 0-3v-181h167v172c13 4 26 10 37 19 7 5 12 10 16 14 10 10 13 12 29 12h0c0 0 1 0 1 0 0-8 3-16 9-23 6-6 15-10 25-10h83c28 0 50 22 50 50v116c0 28-22 50-50 50z m17-166c0-9-8-17-17-17l-83 0c0 8-3 16-9 22-7 7-16 11-26 11h0c-28 0-38-8-51-20-4-4-9-8-15-13-14-11-31-17-50-17h-101c-3 36-17 62-41 79-38 27-93 24-132 16 47 55 113 89 175 89h99c19 0 36-6 50-17 7-5 11-9 15-13 13-12 23-20 52-20 9-1 18 4 25 11 6 6 9 14 9 22h83c9 0 17-7 17-17v-116z m-617 233h-67v-217c0-9-7-16-16-16-10 0-17 7-17 16v217h-50v-100c0-9-7-17-17-17-9 0-16 8-16 17v100h-50v-217c0-9-8-16-17-16s-17 7-17 16v217h-66c-9 0-17-7-17-17v-966c0-10 8-17 17-17h66v150c0 9 8 17 17 17s17-8 17-17v-150h66c-9 0-16 7-16 17v100c0 9 7 16 16 16 10 0 17-7 17-16v-100c0-10-7-17-17-17h67v217c0 9 7 16 17 16 9 0 16-7 16-16v-217h67c9 0 17 7 17 17v966c0 10-8 17-17 17z m-233-767c0-9-8-16-17-16s-17 7-17 16v34c0 9 8 16 17 16s17-7 17-16v-34z m0 117c0-9-8-17-17-17s-17 8-17 17v167c0 9 8 16 17 16s17-7 17-16v-167z m83-150c0-9-7-17-17-17-9 0-16 8-16 17v117c0 9 7 16 16 16 10 0 17-7 17-16v-117z m0 200c0-9-7-17-17-17-9 0-16 8-16 17v151c-48 8-84 50-84 99v50c0 9 8 17 17 17s17-8 17-17v-50c0-37 30-67 66-67 10 0 17-7 17-16v-167z m-17 217c-18 0-33 15-33 33 0 18 15 33 33 33s34-15 34-33c0-18-15-33-34-33z m100-334c0-9-7-16-16-16-9 0-17 7-17 16v134c0 9 8 16 17 16 9 0 16-7 16-16v-134z m0 217c0-9-7-17-16-17-9 0-17 8-17 17v150c0 37-30 67-67 67-9 0-16 7-16 16v67c0 9 7 17 16 17 10 0 17-8 17-17v-51c47-8 83-49 83-99v-150z m300-317h67c9 0 16-7 16-16 0-9-7-17-16-17h-67v-33h67c9 0 16-8 16-17s-7-17-16-17h-67v-16c0-37 30-67 67-67h33c37 0 67 30 67 67v433h-167v-317z" horiz-adv-x="1000" />

<glyph glyph-name="hammer-and-nail" unicode="&#xe860;" d="M975 169l-498 469c35 84 109 91 135 91 2 0 4 0 5 0 1 0 2 0 3 0 12 0 15 8 15 13 0 10-14 21-43 31-16 6-49 16-88 16-10 0-20-1-30-2-54-7-86-21-111-41-24 23-39 35-57 35-12 0-23-6-35-18-10-10-22-25-15-47 4-12 13-23 27-38l-29-11c-5-2-13-7-17-12l-104-105c-8-8-8-20 0-27l151-151c3-3 8-5 13-5h0c5 0 10 2 14 5l95 96c4 4 9 11 11 16l17 34 431-458 0 0c17-17 33-25 50-25 0 0 0 0 0 0 24 0 43 16 56 29 23 23 50 60 4 105z m-615-196c0 0-105 0-140 0-8 0-9 8-9 8l6 12c1 2 1 6 1 8v10 3 166 0c0 11 4 28 7 37l14 35c13 4 21 13 21 24 0 1 0 1 0 2 0 1 0 1 0 2 0 9-7 31-68 31s-68-22-68-31c0-1 0-1 0-2 0-1 0-1 0-2 0-11 8-20 21-24l13-35c4-9 8-26 8-37v0-166-3-10c0-2 0-6 1-8l6-12c0 0 3-8-8-8-36 0-142 0-142 0-12 0-23-10-23-23v-16c0-12 11-23 23-23h337c13 0 24 11 24 23v16c0 13-11 23-24 23z" horiz-adv-x="1000" />

<glyph glyph-name="helmet" unicode="&#xe861;" d="M983 143h-35c-9 0-17 8-17 17v60c0 81-22 158-61 225l-209-77c-2 0-4-1-6-1-4 0-8 2-12 5-4 5-6 12-4 18l69 216c-22 13-46 24-70 32v6c0 28-23 51-51 51h-70v-241c0-10-7-18-17-18-9 0-17 8-17 18v241h-70c-28 0-51-23-51-51v-6c-26-8-51-20-75-34l74-214c2-6 1-13-4-18-3-3-8-5-12-5-2 0-4 1-6 1l-214 72c-36-63-56-135-56-211v-69c0-9-8-17-17-17h-35c-9 0-17-8-17-17v-104c0-9 8-17 17-17h966c9 0 17 8 17 17v104c0 9-8 17-17 17z m-190-34h-586c-10 0-17 7-17 17s7 17 17 17h586c10 0 17-8 17-17s-7-17-17-17z m-536 476c-45-31-83-70-114-115l174-58-60 173z m594-110c-31 43-69 82-113 112l-56-174 169 62z" horiz-adv-x="1000" />

<glyph glyph-name="home-key" unicode="&#xe862;" d="M927 721c-48 47-111 73-178 73s-130-26-177-73-74-111-74-178c0-55 18-107 50-150l-227-228-73 73c-1 1-1 3 0 4l4 4c9 9 7 16 6 19-1 2-5 9-15 9-1 0-3 0-5 0l-146-27c-13-2-24-13-26-26l-8-43-12 12c-3 2-6 4-10 4-4 0-7-2-10-4l-22-22c-5-6-5-15 0-20l41-41-6-32c-1-7 0-12 3-16 3-3 7-5 11-5 4 0 9 2 13 6l5 5c1 1 1 1 2 1 0 0 1 0 2-1l73-73-26-26c-14-14-14-36 0-50 7-7 16-10 25-10 9 0 18 3 25 10l426 427c44-33 96-51 151-51 67 0 130 27 178 74 47 47 73 110 73 177s-26 131-73 178z m-663-624l-48-48c-4-4-10-4-14 0l-55 56c-4 3-4 9 0 13l48 48c3 4 9 4 13 0l56-56c3-3 3-9 0-13z m612 319c-34-34-79-53-127-53s-93 19-127 53c-34 34-53 79-53 127s19 94 53 128c34 34 79 53 127 53s93-19 127-53c34-34 53-79 53-128s-19-93-53-127z" horiz-adv-x="1000" />

<glyph glyph-name="house-plan-1" unicode="&#xe865;" d="M871 548c2 6 1 16-13 26l-386 267c-8 6-20 9-32 9-12 0-23-3-32-9l-147-102v41c0 12-10 21-22 21h-84c-12 0-21-9-21-21v-118c0-4 1-10-4-14l-107-74c-15-10-16-20-14-26 2-6 8-13 26-13h43c11 0 19-9 19-19v-423c0-24 19-43 43-43h600c24 0 43 19 43 43v423c0 10 9 19 19 19h43c18 0 24 7 26 13z m-593-265c0-5-5-10-10-10h-93c-6 0-10 5-10 10v82c0 5 4 9 10 9h93c5 0 10-4 10-9v-82z m0 128c0-5-5-10-10-10h-93c-6 0-10 5-10 10v76c0 5 4 9 10 9h93c5 0 10-4 10-9v-76z m139-128c0-5-4-10-9-10h-94c-5 0-9 5-9 10v82c0 5 4 9 9 9h94c5 0 9-4 9-9v-82z m0 128c0-5-4-10-9-10h-94c-5 0-9 5-9 10v76c0 5 4 9 9 9h94c5 0 9-4 9-9v-76z m247-324c0-6-5-10-10-10h-140c-5 0-9 4-9 10v222c0 6 4 10 9 10h140c5 0 10-4 10-10v-222z m223 88c-7-5-10-15-5-23l19-28c4-7 12-11 19-11 0 0 0 0 0 0 8 0 15 4 19 11l18 29c5 8 3 18-5 23-5 3-11 3-16 1l-2 160c5-2 11-1 16 2 7 5 9 15 4 23l-18 28c-4 7-12 11-19 11 0 0 0 0 0 0-8 0-15-4-19-11l-18-29c-5-8-3-18 5-23 3-1 6-2 9-2 2 0 5 0 7 1l2-160c-5 2-11 2-16-2z m-25 262c0 0 0 0 0 0l109 0c9 1 17 8 17 17 0 9-8 17-17 17 0 0 0 0 0 0l-109-1c-10 0-17-8-17-17 0-9 8-16 17-16z m113-359c0 0 0 0 0 0l-109-1c-10 0-17-8-17-17 0-9 8-16 17-16 0 0 0 0 0 0l109 0c9 1 17 8 17 17 0 9-8 17-17 17z m-257-134l-29 18c-8 5-18 3-23-5-3-5-3-11-1-16l-441-2c3 5 2 10-1 15-5 8-15 10-23 5l-28-18c-7-5-11-12-11-20 0-7 4-14 11-19l29-18c2-1 5-2 8-2 6 0 11 3 15 8 3 4 3 10 1 15l440 3c-2-5-2-11 1-16 4-5 9-7 14-7 3 0 7 0 9 2l29 19c7 4 11 11 11 19 0 8-5 15-11 19z m63 52c0 0 0 0 0 0-10 0-17-7-17-16l1-110c0-9 7-16 17-16 0 0 0 0 0 0 9 0 16 7 16 17l-1 109c0 9-7 16-16 16z m-673-3c0 0 0 0 0 0-10-1-17-8-17-17l1-110c0-9 8-16 17-16 0 0 0 0 0 0 9 0 16 8 16 17l-1 109c0 9-7 17-16 17z" horiz-adv-x="1000" />

<glyph glyph-name="house-plan-2" unicode="&#xe866;" d="M849 366l-387 267c-8 6-19 9-31 9-11 0-22-3-31-9l-148-103v43c0 11-10 20-21 20h-84c-12 0-21-9-21-20v-119c0-3 1-11-7-16l-105-72c-14-10-15-19-13-25 2-6 7-13 25-13h45c10 0 18-9 18-19v-378c0-23 19-42 42-42h601c23 0 42 19 42 42v378c0 10 8 19 18 19h45c17 0 23 7 25 13 2 6 1 15-13 25z m-580-245c0-5-4-9-9-9h-94c-5 0-9 4-9 9v83c0 5 4 9 9 9h94c5 0 9-4 9-9v-83z m0 128c0-5-4-9-9-9h-94c-5 0-9 4-9 9v77c0 5 4 9 9 9h94c5 0 9-4 9-9v-77z m140-128c0-5-4-9-10-9h-94c-5 0-9 4-9 9v83c0 5 4 9 9 9h94c6 0 10-4 10-9v-83z m0 128c0-5-4-9-10-9h-94c-5 0-9 4-9 9v77c0 5 4 9 9 9h94c6 0 10-4 10-9v-77z m246-324c0-5-4-9-9-9h-141c-5 0-9 4-9 9v224c0 5 4 9 9 9h141c5 0 9-4 9-9v-224z m236 598c-3 8-13 12-21 8-5-2-9-7-9-13l-261 175c5 3 8 8 9 14 0 8-7 16-16 16l-34 1c-8 0-15-4-20-10-4-6-4-14-1-21l14-31c2-6 8-10 14-10 3 0 5 0 7 1 5 3 9 8 9 13l261-174c-5-3-8-8-9-14 0-9 7-16 16-17l34 0c1 0 1 0 1 0 8 0 15 3 19 9 4 6 4 14 1 21l-14 32z m-441 168c3-2 6-3 9-3 5 0 10 2 13 7l61 91c5 7 3 17-4 22-8 5-18 3-23-4l-60-91c-5-7-3-17 4-22z m543-197c-7 5-17 3-22-5l-61-90c-5-8-3-18 4-23 3-1 6-2 9-2 5 0 10 2 13 7l61 90c5 8 3 18-4 23z" horiz-adv-x="1000" />

<glyph glyph-name="hydrant" unicode="&#xe867;" d="M983-17c-106 0-200 85-200 184 0 40-28 73-66 81v102c93-8 166-87 166-183 0-47 54-84 100-84 10 0 17 7 17 17s-7 17-17 17c-28 0-66 25-66 50 0 120-97 216-217 216h-50v34h42c23 0 41 18 41 41v15c0 24-18 42-41 42h-42c-8 133-107 240-233 263v22c0 28-22 50-50 50s-50-22-50-50v-22c-127-23-225-130-232-261h-42c-23 0-43-19-43-42v-15c0-25 20-43 43-43h40v-34h-50c-10 0-16-6-16-16v-134c0-10 6-16 16-16h50v-267c-46 0-83-37-83-83 0-10 7-17 17-17h700c10 0 16 7 16 17 0 46-36 83-83 83v267h50c28 0 50-22 50-50 0-115 108-217 233-217 10 0 17 7 17 17 0 8-7 16-17 16z m-633 817c0 10 7 17 17 17s16-7 16-17v-17c-5 0-11 0-16 0s-12 0-17 0v17z m-300-550v100h33v-100h-33z m647-367h-660c6 20 25 34 46 34h17 533 17c22 0 40-14 47-34z m-264 367v100c0 10 7 17 17 17h83c10 0 17-7 17-17v-333c0-10-7-17-17-17h-83c-10 0-17 7-17 17v116h-133v-116c0-10-7-17-17-17h-83c-10 0-17 7-17 17v333c0 10 7 17 17 17h83c10 0 17-7 17-17v-100h133z m200 202v-2h-533-57c-5 0-10 3-10 8v15c0 7 5 10 10 10h57 533 59c5 0 8-3 8-8v-15c0-5-3-8-8-8h-59z m50-202h-33v100h33v-100z m-216 83v-100c0-10-7-16-17-16h-167c-8 0-16 6-16 16v100h-50v-300h50v117c0 10 6 17 16 17h167c10 0 17-7 17-17v-117h50v300h-50z" horiz-adv-x="1000" />

<glyph glyph-name="inclined-magnet" unicode="&#xe86c;" d="M986 309l-115 115c-1 1-13 13-30 13-10 0-19-5-27-13l-256-256c-32-32-75-49-120-49s-88 17-120 49c-32 32-49 75-49 120 0 45 17 88 49 120l252 252c17 16 17 32 15 42-3 11-10 18-10 19l-116 115c-9 10-18 14-27 14-13 0-22-9-31-17l-281-282c-160-160-160-420 0-581 78-77 181-120 291-120 110 0 213 43 290 120l281 281c8 8 15 15 17 24 4 17-9 30-13 34z m-623 436l41 40c13 13 31 22 50 4l78-79c0 0 20-19-4-43-6-6-44-44-51-51-20-20-40 1-40 1l-78 77c-18 19-9 38 4 51z m572-491l-41-41c-12-13-31-22-50-4l-78 79c0 0-20 19 4 43 6 6 44 44 51 51 20 20 40-1 40-1l78-77c18-19 9-37-4-50z" horiz-adv-x="1000" />

<glyph glyph-name="inclined-picker" unicode="&#xe86d;" d="M645 441l-54 54c-4 4-9 6-14 6-4 0-9-2-12-5l-14-13-5 5c-6 5-13 8-20 8-8 0-15-3-20-8l-19-19c-11-11-11-29 0-40l3-3-484-449c-4-4-6-9-6-14 0-5 2-9 5-13l95-95c4-3 8-5 13-5 5 0 10 2 14 6l449 484 3-3c6-6 13-9 20-9 7 0 14 3 20 9l19 19c11 11 11 29 0 40l-5 5 13 13c6 8 6 20-1 27z m349-238l-23 158c-6 41-34 96-63 126l-84 83 22 22c7 7 11 16 11 26 0 10-4 19-11 26l-52 52c-7 7-16 11-26 11-10 0-19-4-26-11l-22-22-83 84c-30 29-85 57-126 63l-158 23c-28 4-51 6-59 6-13 0-16-7-17-11-1-6 0-13 8-16 6-4 44-18 75-31l103-39c34-13 84-45 109-71l78-78-35-35c-7-7-11-16-11-26 0-10 4-19 11-26l52-52c7-7 16-11 26-11 10 0 19 4 26 11l35 35 78-78c26-25 58-75 71-109l39-103c13-31 27-69 31-75 2-5 7-9 13-9l6 0 4 5c5 5 7 8-2 72z" horiz-adv-x="1000" />

<glyph glyph-name="inclined-shovel" unicode="&#xe86e;" d="M985 649l-186 186c-10 10-22 15-34 15-20 0-36-12-44-31l-51-130c-9-24-3-55 16-74l17-18-325-325-5 4c-42 42-84 63-124 63-36 0-71-17-104-50l-97-97c0 0 0 0 0 0l-12-11c-19-20-35-57-36-85 0-6-2-152 46-200 43-43 160-46 195-46 3 0 5 0 5 0 28 1 65 16 85 36l38 39c0 0 0 0 1 0l69 70c37 36 53 75 49 115-3 37-24 75-62 113l-4 5 325 325 18-17c12-13 31-20 50-20 9 0 17 1 24 4l130 51c16 7 27 19 30 35 3 15-2 31-14 43z m-168-71c0 0-1 0-2 0-3 0-5 1-6 2l-79 79c-1 1-2 6-2 7l43 109 154-154-108-43z" horiz-adv-x="1000" />

<glyph glyph-name="jackhammer" unicode="&#xe86f;" d="M917 800h-84c-9 0-16-7-16-17h-102l2 17c0 28-23 50-50 50h-334c-27 0-50-22-50-51l2-16h-102c0 10-7 17-16 17h-84c-36 0-66-30-66-67 0-36 30-66 66-66h84c9 0 16 7 16 16h111l17-191c4-35 28-63 61-72l23-129c4-20 19-35 38-40v-101c0-17 7-32 17-44v-189c0-4 1-7 3-10l33-50c3-4 8-7 14-7 6 0 11 3 14 7l33 50c2 3 3 6 3 10v189c10 12 17 27 17 44v101c19 5 34 20 38 40l23 129c33 9 58 37 61 72l17 191h111c0-9 7-16 16-16h84c36 0 66 30 66 66 0 37-30 67-66 67z m-734-83v33h105l2-27 1-6h-108z m334-795l-17-25-17 25v164c1-1 2-1 2-1 1 0 2 0 3 0 4-1 8-2 12-2 0 0 0 0 0 0 0 0 0 0 0 0 4 0 8 1 12 2 1 0 2 0 3 0 1 0 1 0 2 1v-164z m55 375c-1-8-8-14-16-14h-6-100-5c-9 0-15 6-17 14l-22 120h188l-22-120z m-122 253c-9 0-17 7-17 17s8 16 17 16h100c9 0 17-7 17-16s-8-17-17-17h-100z m83-50c0-9-7-17-16-17h-34c-9 0-16 8-16 17s7 17 16 17h34c9 0 16-8 16-17z m50 117h-166c-9 0-17 7-17 16s8 17 17 17h166c10 0 17-7 17-17s-7-16-17-16z m234 100h-108l3 33h105v-33z" horiz-adv-x="1000" />

<glyph glyph-name="knife" unicode="&#xe871;" d="M648 308c-3 5-9 9-15 9h-266c-6 0-12-4-15-9-3-5-3-11 0-17 32-51 48-111 48-171v-70h67c9 0 16-7 16-17s-7-16-16-16h-67v-34h67c9 0 16-7 16-16s-7-17-16-17h-67c0-55 45-100 100-100 55 0 100 45 100 100v170c0 60 17 120 48 171 3 6 3 12 0 17z m-231 42h166c10 0 17 8 17 17v172c0 126-67 244-175 309-5 3-11 3-17 0-5-3-8-9-8-15v-466c0-9 7-17 17-17z m58 331c9 5 19 2 23-6 23-43 35-93 35-142v-100c0-9-7-16-16-16s-17 7-17 16v100c0 44-11 88-31 126-5 8-2 18 6 22z" horiz-adv-x="1000" />

<glyph glyph-name="ladder" unicode="&#xe872;" d="M833 350c0 47-36 83-83 83v134c47 0 83 36 83 83 0 47-36 83-83 83v34c0 46-37 83-83 83-47 0-84-37-84-83v-34h-166v34c0 46-37 83-84 83-45 0-83-37-83-83v-34c-47 0-83-36-83-83 0-47 36-83 83-83v-134c-47 0-83-36-83-83 0-47 36-83 83-83v-134c-47 0-83-36-83-83 0-47 36-83 83-83v-34c0-46 37-83 83-83 47 0 84 37 84 83v34h166v-34c0-46 37-83 84-83 46 0 83 37 83 83v34c47 0 83 36 83 83 0 47-36 83-83 83v134c47 0 83 36 83 83z m-450-417c0-28-21-50-50-50-28 0-50 22-50 50v34h100v-34z m-66 117c0 10 6 17 16 17s17-9 17-17c0-10-7-17-17-17s-16 7-16 17z m66 83h-100v134h100v-134z m-66 217c0 10 6 17 16 17s17-9 17-17c0-10-7-17-17-17s-16 7-16 17z m66 83h-100v134h100v-134z m-66 217c0 10 6 17 16 17s17-7 17-17-7-17-17-17-16 7-16 17z m66 83h-100v34c0 28 24 50 50 50 29 0 50-22 50-50v-34z m200-600h-166v134h166v-134z m0 300h-166v134h166v-134z m134-500c0-28-22-50-50-50-29 0-50 22-50 50v34h100v-34z m-67 117c0 10 7 17 17 17 10 0 16-7 16-17s-6-17-16-17c-10 0-17 7-17 17z m67 83h-100v134h100v-134z m-67 217c0 10 7 17 17 17 10 0 16-9 16-17 0-10-6-17-16-17-10 0-17 7-17 17z m67 83h-100v134h100v-134z m-67 217c0 10 7 17 17 17 10 0 16-7 16-17s-6-17-16-17c-10 0-17 7-17 17z m67 83h-100v34c0 28 21 50 50 50 28 0 50-22 50-50v-34z" horiz-adv-x="1000" />

<glyph glyph-name="ladder-1" unicode="&#xe873;" d="M837 262c-7 6-17 6-24 0l-33-34c-7-6-7-16 0-23 3-3 8-5 12-5 3 0 8 2 11 5l34 33c6 7 6 17 0 24z m38-95h-50c-10 0-17-7-17-17s7-17 17-17h50c10 0 17 7 17 17 0 8-7 17-17 17z m-38-105l-34 33c-6 7-16 7-23 0-7-7-7-17 0-23l33-34c4-3 9-5 12-5 5 0 8 2 12 5 6 7 6 17 0 24z m-302 123l33-17c7-3 14-1 20 4l22 21 22-21c3-4 6-5 11-5 4 0 5 0 7 1l33 17c5 3 10 8 10 15v67c47 0 84 36 84 83 0 47-37 83-84 83v134c47 0 84 36 84 83 0 47-37 83-84 83v34c0 46-36 83-83 83-47 0-83-37-83-83v-34h-169v34c0 46-36 83-83 83-45 0-83-37-83-83v-34c-47 0-84-36-84-83 0-47 37-83 84-83v-134c-47 0-84-36-84-83 0-47 37-83 84-83v-90c-15 0-30-5-44-15-18-14-30-32-35-54-3-21 2-43 14-61 11-19 31-30 53-35l12-2v-77c0-46 36-83 83-83 47 0 83 37 83 83v47l167-30v-17c0-46 37-83 83-83 44 0 77 32 82 73 17 0 32 5 45 15 18 14 30 32 35 54 3 21-2 43-13 61-14 19-32 30-54 35l-345 62v117h167v-67c0-7 3-12 10-15z m23 582c0 28 22 50 50 50s50-22 50-50v-34h-100v34z m67-117c0-10-7-17-17-17s-16 7-16 17 6 17 16 17 17-7 17-17z m-67-83h100v-134h-100v134z m67-217c0-10-7-17-17-17s-16 7-16 17 6 17 16 17 17-7 17-17z m-67-83h100v-57l-13-7-25 25c-3 4-7 5-12 5s-8-1-11-5l-25-25-14 7v57z m-233-334c0-28-22-50-50-50s-50 22-50 50v70l100-18v-52z m-63 149c1 8 10 15 20 13 8-2 15-10 13-20-2-10-10-15-20-13-8 1-15 11-13 20z m63 73h-2l-98 17v95h100v-112z m-67 195c0 10 7 17 17 17s17-7 17-17-7-17-17-17-17 7-17 17z m67 83h-100v134h100v-134z m-67 217c0 10 7 17 17 17s17-7 17-17-7-17-17-17-17 7-17 17z m67 83h-100v34c0 28 22 50 50 50s50-22 50-50v-34z m263-710c4 10 12 15 20 14s15-10 14-20-10-15-20-14c-9 2-15 10-14 20z m-30-78l10-2 90-16c-3-25-23-44-50-44-28 0-50 22-50 50v12z m-200 488v134h167v-134h-167z" horiz-adv-x="1000" />

<glyph glyph-name="ladder-4" unicode="&#xe876;" d="M717-50h-34v883c0 10-6 17-16 17h-67c-10 0-17-7-17-17v-83h-166v83c0 10-7 17-17 17h-67c-8 0-16-8-16-17v-883h-34c-10 0-16-7-16-17v-66c0-10 6-17 16-17h434c10 0 16 7 16 17v66c0 9-6 17-16 17z m-134 0h-166v100h166v-100z m0 200h-166v100h166v-100z m0 200h-166v100h166v-100z m0 200h-166v100h166v-100z" horiz-adv-x="1000" />

<glyph glyph-name="light-bulb" unicode="&#xe878;" d="M519 525c-3 5-3 11 0 17l69 125h-61l-99-183h55c6 0 11-3 14-8 3-4 4-10 2-15l-47-121 146 177h-65c-6 0-11 3-14 8z m312 22c-17 157-143 284-300 301-10 1-20 2-31 2-11 0-21-1-31-2-157-17-283-144-300-301-12-107 26-211 103-285 35-34 61-73 73-112h310c12 39 38 78 73 112 77 74 115 178 103 285z m-185-24l-233-283c-3-4-8-7-13-7-3 0-6 1-8 3-7 4-10 12-8 20l75 194h-59c-6 0-11 3-14 8-3 5-3 12-1 17l117 216c3 6 9 9 15 9h100c6 0 11-3 14-8 3-5 3-11 0-17l-69-125h71c7 0 13-4 15-9 3-6 2-13-2-18z m-296-440h133c10 0 17-7 17-16s-7-17-17-17h-133v-33h83c10 0 17-8 17-17 0-9-7-17-17-17h-83v-50c0-9 7-16 17-16h25l30-40c12-17 32-27 53-27h50c21 0 41 10 53 27l30 40h25c10 0 17 7 17 16v50h-133c-9 0-17 8-17 17 0 9 8 17 17 17h133v33h-83c-9 0-17 8-17 17s8 16 17 16h83v34h-300v-34z m217-166l-15-20c-7-9-17-14-27-14h-50c-10 0-20 5-27 14l-15 20h134z" horiz-adv-x="1000" />

<glyph glyph-name="light-bulb-1" unicode="&#xe879;" d="M831 547c-17 157-143 284-300 301-10 1-20 2-31 2-11 0-21-1-31-2-157-17-283-144-300-301-12-107 26-211 103-285 35-34 61-73 73-112h88v250h-33c-37 0-67 30-67 67 0 37 30 67 67 67 37 0 67-30 67-67v-33h66v33c0 37 30 67 67 67 37 0 67-30 67-67 0-37-30-67-67-67h-33v-250h88c12 39 38 78 73 112 77 74 115 178 103 285z m-198-80c0 18-15 33-33 33-18 0-33-15-33-33v-33h33c18 0 33 14 33 33z m-283-384h150c9 0 17-7 17-16s-8-17-17-17h-150v-33h100c9 0 17-8 17-17 0-9-8-17-17-17h-100v-50c0-9 7-16 17-16h25l30-40c12-17 32-27 53-27h50c21 0 41 10 53 27l30 40h25c10 0 17 7 17 16v50h-117c-9 0-16 8-16 17 0 9 7 17 16 17h117v33h-67c-9 0-16 8-16 17s7 16 16 16h67v34h-300v-34z m217-166l-15-20c-7-9-16-14-27-14h-50c-10 0-20 5-27 14l-15 20h134z m-167 583c-18 0-33-15-33-33 0-19 15-33 33-33h33v33c0 18-15 33-33 33z" horiz-adv-x="1000" />

<glyph glyph-name="light-bulb-2" unicode="&#xe87a;" d="M650 250v450c0 83-67 150-150 150-83 0-150-67-150-150v-450c-9 0-17-7-17-17v-99c0-40 29-74 67-82v-35h50c9 0 17-8 17-17 0-9-8-17-17-17h-50v-22c0-4 0-7 1-11h82c10 0 17-8 17-17 0-9-7-16-17-16h-74c3-6 5-11 8-16l4-6c12-19 30-34 50-40 9-4 19-5 29-5 31 0 61 16 78 43l5 8c3 5 6 10 8 16h-41c-9 0-17 7-17 16 0 9 8 17 17 17h49c1 4 1 7 1 11v22h-83c-9 0-17 8-17 17 0 9 8 17 17 17h83v35c38 8 67 42 67 82v99c0 10-8 17-17 17z m-233 450c0 46 37 83 83 83 46 0 83-37 83-83v-450h-33v450c0 28-22 50-50 50-28 0-50-22-50-50v-450h-33v450z m100-34v-416h-34v416c0 9 8 17 17 17 9 0 17-8 17-17z m116-532c0-28-23-51-51-51h-164c-28 0-51 23-51 51v83h66 134 66v-83z" horiz-adv-x="1000" />

<glyph glyph-name="light-bulb-3" unicode="&#xe87b;" d="M450 183v400c0 83-67 150-150 150s-150-67-150-150v-400c-4 0-9-1-12-5-3-3-5-7-5-12l1-65c0-40 29-74 67-82l-1-36h50c9 0 17-7 17-16s-8-17-17-17h-49c2-17 7-34 16-49l4-6c12-19 30-34 50-40 9-4 19-5 29-5 31 0 61 16 78 43l5 8c9 15 15 32 16 49h-82c-9 0-17 7-17 17s8 16 17 16h83l1 36c38 8 67 42 67 82l-1 66c0 9-8 16-17 16z m-233 400c0 46 37 84 83 84 46 0 83-38 83-84v-400h-33v400c0 28-22 50-50 50s-50-22-50-50v-400h-33v400z m100-34v-366h-34v366c0 9 8 17 17 17s17-8 17-17z m66-499h-164c-28 0-51 23-51 51l-1 49h66 134 66 1l0-49c0-28-22-51-51-51z m467 200v450c0 83-67 150-150 150s-150-67-150-150v-450c-9 0-17-7-17-17v-99c0-40 29-74 67-82v-35h50c9 0 17-8 17-17 0-9-8-17-17-17h-50v-22c0-4 0-7 1-11h82c10 0 17-8 17-17 0-9-7-16-17-16h-74c3-6 5-11 8-16l4-6c12-19 30-34 50-40 9-4 19-5 29-5 31 0 61 16 78 43l5 8c3 5 6 10 8 16h-41c-9 0-17 7-17 16 0 9 8 17 17 17h49c1 4 1 7 1 11v22h-83c-9 0-17 8-17 17 0 9 8 17 17 17h83v35c38 8 67 42 67 82v99c0 10-8 17-17 17z m-233 450c0 46 37 83 83 83 46 0 83-37 83-83v-450h-33v450c0 28-22 50-50 50s-50-22-50-50v-450h-33v450z m100-34v-416h-34v416c0 9 8 17 17 17 9 0 17-8 17-17z m116-532c0-28-23-51-51-51h-164c-28 0-51 23-51 51v83h66 134 66v-83z" horiz-adv-x="1000" />

<glyph glyph-name="light-bulb-6" unicode="&#xe87e;" d="M600 150h100v50c0 9-7 17-17 17h-16v500c0 36-30 66-67 66-12 0-23-3-33-9v9c0 37-30 67-67 67s-67-30-67-67v-9c-9 6-21 9-33 9-37 0-67-30-67-66v-500h-16c-9 0-17-8-17-17v-50h133c10 0 17-7 17-17 0-9-7-16-17-16h-133v-34h100c9 0 17-7 17-16s-8-17-17-17h-100v-33h167c9 0 16-8 16-17 0-9-7-17-16-17h-166c1-17 8-33 21-45 14-14 32-21 52-21h18l30-40c12-17 32-27 53-27h50c21 0 41 10 53 27l30 40h18c20 0 39 7 53 21 12 12 19 28 20 45h-82c-9 0-17 8-17 17 0 9 8 17 17 17h83v33h-150c-9 0-17 7-17 17s8 16 17 16h150v34h-100c-9 0-17 7-17 16 0 10 8 17 17 17z m-167 67h-66v500c0 18 15 33 33 33 18 0 33-15 33-33v-500z m134-300l-15-20c-7-9-17-14-27-14h-50c-10 0-20 5-27 14l-15 20h134z m-34 800v-500h-66v500 66c0 19 15 34 33 34 18 0 33-15 33-34v-66z m34-500v500c0 18 15 33 33 33 18 0 33-15 33-33v-500h-66z" horiz-adv-x="1000" />

<glyph glyph-name="light-bulb-8" unicode="&#xe880;" d="M350 83h133c10 0 17-7 17-16s-7-17-17-17h-133v-33h83c10 0 17-8 17-17 0-9-7-17-17-17h-83v-50c0-9 7-16 17-16h25l30-40c12-17 32-27 53-27h50c21 0 41 10 53 27l30 40h25c10 0 17 7 17 16v50h-133c-9 0-17 8-17 17 0 9 8 17 17 17h133v33h-83c-9 0-17 8-17 17s8 16 17 16h83v34h-300v-34z m217-166l-15-20c-7-9-16-14-27-14h-50c-10 0-20 5-27 14l-15 20h134z m-67 783c-101 0-183-82-183-183 0-101 82-184 183-184 101 0 183 83 183 184 0 101-82 183-183 183z m113-127l-116-149c-1-1-1-1-1-1 0 0 0-1-1-1-3-4-7-5-12-5-3 0-6 1-9 3 0 0-1 0-1 1 0 0 0 0 0 0-1 0-1 0-1 1l-67 66c-7 7-7 17 0 24 6 7 17 7 23 0l54-53 105 135c6 7 16 8 23 3 8-6 9-16 3-24z m218-26c-17 157-143 284-300 301-10 1-20 2-31 2-11 0-21-1-31-2-157-17-283-144-300-301-12-107 26-211 103-285 35-34 61-73 73-112h310c12 39 38 78 73 112 77 74 115 178 103 285z m-331-247c-119 0-217 97-217 217 0 120 98 217 217 217s217-97 217-217c0-120-97-217-217-217z" horiz-adv-x="1000" />

<glyph glyph-name="light-bulb-9" unicode="&#xe881;" d="M500 700c-101 0-183-82-183-183 0-101 82-184 183-184 101 0 183 83 183 184 0 101-82 183-183 183z m83-242c6-7 6-17 0-24-4-3-8-5-12-5-4 0-9 2-12 5l-59 59-59-59c-3-3-7-5-12-5-4 0-8 2-11 5-7 7-7 17 0 24l58 59-58 59c-7 6-7 17 0 23 6 7 17 7 23 0l59-59 59 59c7 7 17 7 24 0 6-6 6-17 0-23l-59-59 59-59z m248 89c-17 157-143 284-300 301-10 1-20 2-31 2-11 0-21-1-31-2-157-17-283-144-300-301-12-107 26-211 103-285 35-34 61-73 73-112h310c12 39 38 78 73 112 77 74 115 178 103 285z m-331-247c-119 0-217 97-217 217s98 217 217 217 217-98 217-217-97-217-217-217z m-150-217h133c10 0 17-7 17-16s-7-17-17-17h-133v-33h83c10 0 17-8 17-17 0-9-7-17-17-17h-83v-50c0-9 7-16 17-16h25l30-40c12-17 32-27 53-27h50c21 0 41 10 53 27l30 40h25c10 0 17 7 17 16v50h-133c-9 0-17 8-17 17 0 9 8 17 17 17h133v33h-83c-9 0-17 8-17 17s8 16 17 16h83v34h-300v-34z m217-166l-15-20c-7-9-16-14-27-14h-50c-10 0-20 5-27 14l-15 20h134z" horiz-adv-x="1000" />

<glyph glyph-name="little-snowplow" unicode="&#xe886;" d="M994 501c-4 5-10 7-16 7h-60c-7 0-14-3-20-7v65c0 32-26 59-59 59h-281c-31 0-61-25-68-55l-28-106-1 0c-5-27-9-70-9-98v-62c-3-1-5-2-6-3l-74-48c-9-5-15-17-15-28v-45h-51v188c0 11-8 17-15 17-4 0-8-1-12-4l-271-203c-10-7-8-14-7-17 1-3 4-9 15-9h228v-1h145v0h47c6-43 42-76 86-76 44 0 80 33 85 76h134c5-43 41-76 85-76 44 0 80 33 86 76h51c12 0 23 10 23 22l14 312c0 6-2 12-6 16z m-472-380c-23 0-41 18-41 40 0 23 18 41 41 41 22 0 41-18 41-41 0-22-19-40-41-40z m44 301l11 27c3 6 3 13 0 19-2 6-7 11-13 14-3 1-6 2-10 2-10 0-19-6-23-15l-17-42c-5 4-7 10-6 18l26 102 0 1c3 15 18 27 33 27h255c14 0 25-12 25-26v-102c0-14-11-25-25-25h-256z m260-301c-22 0-41 18-41 40 0 23 19 41 41 41s41-18 41-41c0-22-18-40-41-40z" horiz-adv-x="1000" />

<glyph glyph-name="loader" unicode="&#xe887;" d="M1000 572l-67 200c-3 6-10 11-16 11h-34c-6 0-13-3-15-10l-31-73h-337c-5 0-8-2-12-5l-211-213c-24-4-42-25-42-50v-117h-67v-33c0-37-30-67-66-67h-102v-50c0-10 7-17 17-17h250v-16h-159c-60 1-108-47-108-107 0-60 48-108 108-108h517c60 0 108 48 108 108 0 60-48 108-108 108h-158v17h50c10 0 16 7 16 17v43l-161 58c-34 12-55 44-55 80v102h33v-102c0-21 13-40 33-48l150-55v118c0 15-3 30-8 45-13 34-40 57-72 69l87 91 283 14 42-365c-8-2-15-9-15-17v-67c0-6 3-10 8-13l-90-178c-3-5-1-12 0-17 4-5 9-8 15-8h95c50 0 95 31 110 80 9 23 9 50 0 73l-15 48c7 2 10 9 10 15v67c0 8-6 15-15 17l32 348c0 2 0 5 0 7z m-400-489c2 0 2 0 3 0s4 0 5 0c32 0 59-26 59-58 0-32-27-58-59-58-1 0-3 0-5 0s-1 0-3 0h-467c-1 0-1 0-3 0s-3 0-5 0c-32 0-58 26-58 58 0 32 26 58 58 58 2 0 3 0 5 0s3 0 3 0h467z m-167 67v-17h-133v17h133z m389 463l-289-13c-5 0-8-2-11-5l-107-112h-2-63-27l184 184h315l-5-10c0-4 0-5 0-9l5-35z m61-430h67v-33h-67v33z m74-176c-12-34-44-57-79-57h-68l83 167h45l19-57c6-17 6-37 0-53z m-889 310c-36 0-66-30-68-67h100c18 0 33 15 33 33v34h-65z m80-284c0 0 0 0 0 2-1 2-1 5-3 7 0 0 0 0 0 1-2 2-3 4-5 5 0 0 0 0-2 0-3 0-5 0-8 2-2 0-3 0-5 0-13 0-25-12-25-25s12-25 25-25c2 0 3 0 5 0 3 0 5 2 7 3 0 0 0 0 1 0 2 2 4 4 5 5 0 0 0 0 0 2 2 2 4 3 4 7 0 0 0 0 0 1 3 2 3 4 3 7s0 5-2 8z m405-23c0 2 0 2-1 3-2 4-2 7-2 12s0 8 2 12c0 1 0 1 1 3 0 3 2 5 4 8 0 0 0 0 0 2h-379c0 0 0 0 0-2 2-3 2-5 4-8 0-2 0-2 1-3 0-4 0-7 0-12s0-8-1-12c0-1 0-3 0-3 0-3-2-5-4-8 0 0 0 0 0-2h379c0 0 0 0 0 2-2 3-2 5-4 8z m54 40c-2 0-4 0-5 0-4 0-5-2-7-3 0 0 0 0-2 0-1-2-3-4-5-5 0 0 0 0 0-2-1-2-3-3-3-7 0 0 0 0 0-1 0-2-2-5-2-9 0-1 2-3 2-6 2-2 2-5 3-7 0 0 0 0 0-2 2-1 4-3 5-5 0 0 0 0 2 0 2-1 5-1 7-3 1 0 3 0 5 0 13 0 25 12 25 25s-12 25-25 25z" horiz-adv-x="1000" />

<glyph glyph-name="log-2" unicode="&#xe88a;" d="M275 289c-8 5-18 2-23-6-5-10-19-38-19-83 0-45 14-73 19-83 3-5 9-8 15-8 3 0 5 0 8 2 8 4 11 14 6 22-4 8-14 30-14 67 0 37 10 59 14 67 5 8 2 18-6 22z m669 61c31 24 52 74 56 133h-183c-9 0-17 8-17 17s8 17 17 17h183c-1 17-4 34-8 50h-259-16-250c-9 0-17 7-17 16s8 17 17 17h250 16 247c-18 41-47 67-80 67h-717c-56 0-100-74-100-167 0-59 18-111 46-140-9 4-19 7-29 7-56 0-100-74-100-167 0-93 44-167 100-167h167 633c56 0 100 74 100 167 0 67-23 123-56 150z m-829-217c4-8 1-18-7-22-2-2-5-2-8-2-6 0-11 3-14 8-6 10-19 38-19 83 0 45 13 73 19 83 4 8 14 11 22 6 8-4 11-14 7-22-5-8-15-30-15-67 0-37 10-59 15-67z m652 300h133c9 0 17-7 17-16s-8-17-17-17h-133c-9 0-17 8-17 17s8 16 17 16z m-84 84h50c10 0 17-8 17-17s-7-17-17-17h-50c-9 0-16 8-16 17s7 17 16 17z m17-100c0-10-7-17-17-17h-166c-9 0-17 7-17 17s8 16 17 16h166c10 0 17-7 17-16z m-133 100h50c9 0 16-8 16-17s-7-17-16-17h-50c-9 0-17 8-17 17s8 17 17 17z m-67 0c9 0 17-8 17-17s-8-17-17-17h-167c-9 0-16 8-16 17s7 17 16 17h167z m-100 83c9 0 17-7 17-17s-8-16-17-16h-125c-3 12-7 23-11 33h136z m-125-167h142c9 0 16-7 16-16s-7-17-16-17h-153c4 10 8 21 11 33z m-158 67c0 79 35 133 66 133s67-54 67-133-35-133-67-133-66 54-66 133z m66-167h23c-9-11-16-24-23-40-7 19-17 35-28 47 9-4 18-7 28-7z m-22-266c0 0 0 1 1 1 3 5 6 9 9 14 0 0 0 0 1 1 2 5 5 10 8 15 0 1 0 1 1 2h5c0-1 1-1 1-2 3-5 5-10 8-15 0-1 0-1 1-1 2-5 6-9 9-14 0 0 1-1 1-1h-45z m106 0c-3 0-5 0-7 1-1 0-2 0-3 1-1 0-2 0-3 1-2 0-3 1-5 2 0 0 0 0-1 1-25 16-48 64-48 127 0 79 35 133 67 133s66-54 66-133c0-79-35-133-66-133z m633 0h-573c1 0 1 1 2 2 2 2 3 4 5 7 1 1 2 3 3 4 2 3 3 7 5 10 1 1 1 2 2 3 1 2 2 5 3 7h153c9 0 17 8 17 17s-8 16-17 16h-141c0 2 0 4 1 6 0 2 1 4 1 6 1 4 2 7 2 11 1 2 1 5 1 7 1 4 1 8 2 12 0 2 0 4 0 6 0 6 1 13 1 19 0 6-1 13-1 19 0 2 0 4 0 6-1 4-1 8-2 12 0 3 0 5-1 7 0 4-1 7-2 11 0 2-1 4-1 7-1 1-1 3-1 5h124c10 0 17 7 17 16s-7 17-17 17h-136c-1 2-2 5-3 7-1 1-1 2-2 3-2 4-3 7-5 10-1 1-2 3-3 4-2 3-3 5-5 7-1 1-1 2-2 2h573c15 0 31-12 43-33h-226c-9 0-17-7-17-17s8-16 17-16h233c2 0 5 0 7 1 5-15 8-32 9-51h-149c-9 0-17-8-17-17 0-9 8-17 17-17h149c-4-69-37-116-66-116z m-250 233h-100c-9 0-17-7-17-17s8-16 17-16h100c9 0 17 7 17 16s-8 17-17 17z m100-100c0 9-7 17-17 17h-50c-9 0-16-8-16-17 0-9 7-17 16-17h50c10 0 17 8 17 17z m-150 0c0 9-7 17-17 17h-166c-9 0-17-8-17-17 0-9 8-17 17-17h166c10 0 17 8 17 17z m133-83c0-10 8-17 17-17h133c10 0 17 7 17 17s-7 16-17 16h-133c-9 0-17-7-17-16z m-100 16h-33c-9 0-17-7-17-16s8-17 17-17h33c10 0 17 7 17 17s-7 16-17 16z m-441 278c8 4 10 14 6 22-4 8-15 30-15 67 0 37 11 59 15 67 4 8 2 18-6 22-8 5-19 2-23-6-6-10-19-38-19-83s13-73 19-83c3-5 9-8 14-8 3 0 6 0 9 2z" horiz-adv-x="1000" />

<glyph glyph-name="man-painting" unicode="&#xe88b;" d="M618 492c55 0 100 45 100 101 0 55-45 100-100 100-56 0-101-45-101-100 0-56 45-101 101-101z m203-294l-81 250c-4 14-18 24-32 24h-16-7-135l-205 147c-1 0-2 0-2 1v5c0 15-10 20-19 22v44c0 2 2 5 5 5h75c16 0 29 13 29 29v60c0 16-13 29-29 29h-16v4c0 18-14 32-32 32h-146c-18 0-32-14-32-32v-37c0-17 14-32 32-32h146c18 0 32 15 32 32v9h16c3 0 5-2 5-5v-60c0-3-2-6-5-6h-75c-16 0-29-13-29-28v-44c-9-2-19-7-19-22v-92c0-23 23-23 31-23 7 0 25 0 30 15l166-120c1-1 3-1 4-2v-220-17-284c0-18 14-32 32-32h34c17 0 31 14 31 32v253h17v-253c0-18 14-32 32-32h34c17 0 31 14 31 32v284 17 71l21-63c4-13 18-23 32-23h23c8 0 15 3 19 9 4 6 5 13 3 21z" horiz-adv-x="1000" />

<glyph glyph-name="nail-gun" unicode="&#xe88f;" d="M317 567h233c18 0 33 15 33 33 0 18-15 33-33 33h-233c-19 0-34-15-34-33 0-18 15-33 34-33z m683-84v234c0 27-22 50-50 50h-783c-28 0-50-23-50-50v-34h-67c-28 0-50-22-50-50v-66c0-28 22-50 50-50h67v-34c0-22 1-46 4-68l57-424c4-33 33-58 66-58h439c37 0 67 30 67 67v433h33c0-67 8-309 104-407 27-28 60-43 96-43 7 0 13 5 16 11 2 7 1 14-5 19-77 68-74 262-31 422 21 6 37 25 37 48z m-883 67h-67c-9 0-17 8-17 17v66c0 10 8 17 17 17h67v-100z m200 117h233c37 0 67-30 67-67s-30-67-67-67h-233c-37 0-67 30-67 67s30 67 67 67z m316-350v-117-83c0-37-30-67-66-67h-226c-32 0-59 23-65 54l-26 211c0 0 0 1 0 2 0 18 15 33 33 33h234 83 17c9 0 16-7 16-17v-16z m284 200h-100c-10 0-17 7-17 16 0 10 7 17 17 17h100c9 0 16-7 16-17 0-9-7-16-16-16z m0 66h-134c-9 0-16 8-16 17 0 9 7 17 16 17h134c9 0 16-8 16-17 0-9-7-17-16-17z m0 67h-167c-9 0-17 7-17 17 0 9 8 16 17 16h167c9 0 16-7 16-16 0-10-7-17-16-17z m-366-456l-46 123h-221l25-208c2-14 16-26 32-26h226c18 0 33 15 33 34v66h-33c-7 0-13 5-16 11z" horiz-adv-x="1000" />

<glyph glyph-name="nails" unicode="&#xe890;" d="M831 746l-170 101c-6 4-13 4-18 0-6-4-8-11-7-18 12-53 0-115-34-174l-105-182-105 182c-31 54-41 116-28 174 2 7-1 14-6 18-6 4-13 4-19 1l-170-102c-5-4-9-10-8-17 1-6 6-12 12-14 54-16 98-54 131-111l134-232-164-285c-39-68-68-141-85-216-2-8 2-15 8-19 3-1 6-2 9-2 4 0 8 1 11 4 57 53 106 114 145 182l135 234 135-234c39-68 88-129 145-182 3-3 7-4 11-4 3 0 6 1 9 2 6 4 9 11 8 19-18 75-46 148-85 216l-164 285 134 232c31 54 81 94 137 111 6 2 11 8 12 14 1 7-3 14-8 17z m-371-337l-2-4-125 216c-30 53-69 91-117 113l109 66c-4-55 8-112 37-162l115-199-17-30z m231-339c26-46 48-95 64-146-36 40-67 83-94 129l-145 251 20 34 155-268z" horiz-adv-x="1000" />

<glyph glyph-name="paint-brush" unicode="&#xe892;" d="M966 634v166c0 28-22 50-50 50h-516-283-33c-28 0-50-22-50-50v-166c-10 0-17-8-17-17v-150c0-9 7-17 17-17v-33h116c9 0 17-7 17-17 0-9-8-16-17-16h-116v-34h83c9 0 17-7 17-16 0-10-8-17-17-17h-82c8-38 42-67 82-67h166c20 0 40-8 53-24 13-15 18-35 15-55l-18-112c-11-70 20-141 77-181 27-19 59-28 90-28s63 9 90 28c57 40 88 111 77 181l-18 112c-3 20 2 40 15 55 14 16 33 24 53 24h166c46 0 83 38 83 84v116c10 0 17 8 17 17v150c0 9-7 17-17 17z m-633 72c1 0 1 0 1 0 3-2 6-3 10-4 1 0 2 0 3-1 3 0 7-1 11-1 0 0 0 0 0 0 1 0 1 0 2 0 1 0 3 0 4 0 1 1 2 1 3 1 2 0 4 1 6 1 1 1 3 1 4 2 3 0 5 1 8 3 0 0 0 0 0 0 19 10 32 29 32 51v3 56h499c10 0 17-8 17-17v-166h-600v72z m-266 94c0 9 7 17 17 17h16v-97-3c0-26 16-49 38-60 0 0 1 0 1 0 3-2 5-3 8-3 2-1 3-2 5-2 2 0 4-1 6-1 2 0 4-1 5-1 1 0 2 0 3 0 0 0 0 0 1 0 1 0 3 0 4 0 1 0 2 1 3 1 2 0 4 0 6 1 1 0 2 0 3 0 2 1 4 1 5 2 2 0 3 1 4 1 1 1 2 1 3 2 2 0 4 1 5 2v-25h-133v166z m433-850c-37 0-67 30-67 67 0 37 30 67 67 67s67-30 67-67c0-37-30-67-67-67z m450 534h-900v116h150v-16c0-37 30-67 67-67s66 30 66 67v16h617v-116z m-450-433c-18 0-33-15-33-34 0-18 15-33 33-33 18 0 33 15 33 33 0 19-15 34-33 34z" horiz-adv-x="1000" />

<glyph glyph-name="paint-brush-1" unicode="&#xe893;" d="M833 634v166c0 28-22 50-50 50h-250-283-33c-28 0-50-22-50-50v-166c-9 0-17-8-17-17v-150c0-9 8-17 17-17v-33h117c9 0 16-7 16-17 0-9-7-16-16-16h-117v-34h83c9 0 17-7 17-16 0-10-8-17-17-17h-81c7-38 41-67 81-67h33c20 0 39-8 52-23 13-16 19-36 15-56l-17-112c-11-70 20-141 77-181 27-19 59-28 90-28s63 9 90 28c57 40 88 111 77 181l-17 112c-3 20 2 40 15 56 13 15 32 23 52 23h33c46 0 83 38 83 84v116c9 0 17 8 17 17v150c0 9-8 17-17 17z m-366 72c7-4 16-6 25-6 32 0 58 26 58 58v59h233c9 0 17-8 17-17v-166h-333v72z m-267 94c0 9 8 17 17 17h17v-100c0-37 29-67 66-67 12 0 24 3 33 9v-25h-133v166z m300-850c-37 0-67 30-67 67 0 37 30 67 67 67s67-30 67-67c0-37-30-67-67-67z m317 534h-633v116h149v-16c0-37 30-67 67-67s67 30 67 67v16h350v-116z m-317-433c-18 0-33-15-33-34 0-18 15-33 33-33 18 0 33 15 33 33 0 19-15 34-33 34z" horiz-adv-x="1000" />

<glyph glyph-name="paint-brush-5" unicode="&#xe897;" d="M833 567v233c0 28-21 50-50 50h-33v-233c0-10-7-17-17-17s-16 7-16 17v233h-34v-183c0-10-6-17-16-17s-17 7-17 17v183h-33v-233c0-10-7-17-17-17s-17 7-17 17v233h-33v-183c0-10-7-17-17-17s-16 7-16 17v183h-34v-233c0-10-6-17-16-17s-17 7-17 17v233h-33v-183c0-10-7-17-17-17s-17 7-17 17v183h-33v-233c0-10-7-17-17-17-10 0-16 7-16 17v233h-34v-183c0-10-6-17-16-17s-17 7-17 17v183h-33c-27 0-50-22-50-50v-233c-10 0-17-7-17-17v-150c0-10 7-17 17-17v-33h116c10 0 17-7 17-17s-7-16-17-16h-116c0-12 1-24 5-34h78c10 0 17-6 17-16s-7-17-17-17h-65c23-40 67-67 115-67h80c-12-68-13-136-13-198 0-73 58-135 130-135 0 0 1 0 3 0h3c72 2 130 62 130 135 0 60-1 130-13 198h80c73 0 133 60 133 134v66c10 0 17 7 17 17v150c0 8-7 17-17 17z m-333-617c-37 0-67 30-67 67s30 66 67 66 67-30 67-66-30-67-67-67z m317 467h-634v116h634v-116z" horiz-adv-x="1000" />

<glyph glyph-name="paint-brush-9" unicode="&#xe89b;" d="M866 840c-2 7-9 10-15 10h-14c-67 0-132-37-162-90-1-3-3-5-5-8-11 35-28 61-48 80-14 11-32 18-50 18h-398c-15 0-28-8-35-20-8-13-8-30-1-43 18-34 26-82 28-154-8 0-17-8-17-17v-150c0-10 7-17 17-17v-33h117c10 0 17-7 17-17s-7-16-17-16h-117v-34h84c10 0 16-6 16-16s-6-17-16-17h-84c0-47 37-84 84-84h46c19 0 35-6 49-20s20-30 18-48l-12-262c0-14 5-27 14-37 10-10 21-15 36-15h197c14 0 27 5 37 15 10 10 15 23 14 37l-12 262c0 18 5 35 18 48 14 14 30 20 49 20h46c47 0 84 37 84 84v133c10 0 17 7 17 17v150c0 10-7 17-17 17h-7c-22 50-5 145 35 189 5 5 7 11 4 18z m-366-892c-37 0-67 30-67 67s30 67 67 67c37 0 67-30 67-67s-30-67-67-67z m317 535h-634v117h634v-117z" horiz-adv-x="1000" />

<glyph glyph-name="paint-brush-12" unicode="&#xe89e;" d="M249 233c-32-2-62-17-81-40-15-18-21-40-18-62 3-21-4-41-19-56-48-48-88-58-113-58 0 0-1 0-1 0-7 0-14-5-16-12-2-7 0-14 6-19 7-4 121-86 233-86 45 0 90 13 128 51 63 63 68 165 9 231-34 38-76 55-128 51z m721 536l-5 5c-36 35-94 35-132 0l-21-20 51-52c7-7 7-17 0-24-3-3-7-5-11-5-5 0-9 2-12 5l-52 53-25-23 53-53c7-7 7-17 0-24-3-3-7-5-11-5-5 0-9 2-12 5l-54 54-446-420c43-7 79-27 109-61 36-40 52-91 49-142l519 557c40 43 40 109 0 150z" horiz-adv-x="1000" />

<glyph glyph-name="paint-bucket" unicode="&#xe89f;" d="M895 489h-4c-24 203-190 361-391 361-201 0-367-158-391-361h-3c-17 0-30-13-30-30v-91c0-17 13-30 30-30h39l68-456c2-18 19-32 37-32h500c18 0 35 14 37 32l68 456h40c16 0 29 13 29 30v91c0 17-13 30-29 30z m-129-104l-37-151c-6-24-27-44-46-44-19 0-52 11-73 24l-79 47c-21 13-39 3-39-22v-98c0-25-20-45-45-45h-5c-25 0-46 20-46 45v132c0 25-20 46-45 46h-1c-25 0-46-21-46-46v-37c0-26-21-46-46-46h-28c-25 0-45 20-45 46v147c0 25 20 46 45 46h501c25 0 41-20 35-44z m73 104c-15 0-28-11-30-25h-618c-2 14-15 25-30 25h-6c24 178 170 315 345 315s321-137 345-315h-6z" horiz-adv-x="1000" />

<glyph glyph-name="paint-roller-1" unicode="&#xe8a1;" d="M883 732v68c0 28-22 50-50 50h-716c-28 0-50-22-50-50v-67h-17c-9 0-17-7-17-16 0-9 8-17 17-17h17v-67c0-21 14-40 33-47v-103c0-36 30-66 67-66 12 0 23 3 33 9v-76c0-37 30-67 67-67 36 0 66 30 66 67v122c8-3 16-5 25-5 33 0 59 26 59 58v58h416c28 0 50 23 50 50v65c29-8 50-34 50-65v-66c0-32-22-61-53-67-13-3-225-21-363-33-37 0-67-30-67-67v-100h-100c-5 0-10-2-13-6-3-4-4-9-3-14l16-83c2-8 9-14 17-14h16v-150h67c9 0 17-7 17-16 0-10-8-17-17-17h-67v-33h67c9 0 17-8 17-17 0-9-8-17-17-17h-67c0-46 38-83 84-83 46 0 83 37 83 83v250h17c8 0 15 6 16 14l17 83c1 5-1 10-4 14-3 4-8 6-13 6h-100v100c0 19 15 33 35 33 59 6 354 31 369 34 46 10 80 51 80 100v66c0 50-36 91-84 99z m-546 45c6 7 17 8 24 3 7-6 8-17 2-24l-83-100c-4-4-9-6-13-6-4 0-8 1-11 4-7 6-8 16-2 23l83 100z m-200-100l84 100c5 7 16 8 23 3 7-6 8-17 2-24l-83-100c-3-4-8-6-13-6-4 0-8 1-11 4-7 6-8 16-2 23z m246-152c0-14-11-25-25-25s-25 11-25 25v25c0 9-7 17-16 17s-17-8-17-17v-25-8-167c0-18-15-33-33-33-19 0-34 15-34 33v133 50c0 10-7 17-16 17s-17-7-17-17v-50c0-18-15-33-33-33-19 0-34 15-34 33v100h250v-58z m13 131c-3-4-8-6-13-6-3 0-7 1-10 4-7 6-8 16-2 23l83 100c6 7 16 8 23 3 7-6 8-17 3-24l-84-100z m117 0c-3-4-8-6-13-6-4 0-7 1-11 4-7 6-8 16-2 23l84 100c5 7 16 8 23 3 7-6 8-17 2-24l-83-100z m104-6c-4 0-8 1-11 4-7 6-8 16-2 23l83 100c6 7 17 8 24 3 7-6 8-17 2-24l-83-100c-4-4-9-6-13-6z m196 106l-83-100c-4-4-9-6-13-6-4 0-8 1-11 4-7 6-8 16-2 23l83 100c6 7 17 8 24 3 7-6 8-17 2-24z" horiz-adv-x="1000" />

<glyph glyph-name="pantone" unicode="&#xe8a4;" d="M150 50c-28 0-50-22-50-50 0-28 22-50 50-50 28 0 50 22 50 50 0 28-22 50-50 50z m800 100h-235l203 114c30 17 41 55 24 85l-87 154c-7 14-20 24-36 28-15 4-31 2-45-6l-174-98 107 167c9 14 12 31 8 48-3 17-13 31-28 40l-140 90c-15 10-34 13-51 9-18-4-33-14-43-29l-120-186v234c0 30-20 50-50 50h-200c-30 0-50-20-50-50v-653c-19-7-33-25-33-47v-200c0-28 22-50 50-50h900c28 0 50 22 50 50v200c0 28-22 50-50 50z m-393 215c1 0 1 1 2 1l231 130c7 4 14 5 20 3 7-2 13-7 16-13l87-153c8-14 3-32-11-40l-256-143h-472l383 215z m-490 435c0 12 5 17 16 17h200c12 0 17-5 17-17v-286l-233-363v649z m83-883c-46 0-83 37-83 83 0 46 37 83 83 83 46 0 83-37 83-83 0-46-37-83-83-83z m300 16c0-9-7-16-17-16h-133c-9 0-17 7-17 16v134c0 9 8 16 17 16h133c10 0 17-7 17-16v-134z m217 0c0-9-8-16-17-16h-133c-10 0-17 7-17 16v134c0 9 8 16 17 16h133c9 0 17-7 17-16v-134z m216 0c0-9-7-16-16-16h-134c-9 0-16 7-16 16v134c0 9 7 16 16 16h134c9 0 16-7 16-16v-134z" horiz-adv-x="1000" />

<glyph glyph-name="parquet" unicode="&#xe8a5;" d="M433-150h134v667h-134v-667z m100 650c10 0 17-7 17-17 0-9-7-16-17-16s-16 7-16 16c0 10 7 17 16 17z m-66 0c9 0 16-7 16-17 0-9-7-16-16-16s-17 7-17 16c0 10 8 17 17 17z m133-650h133v1000h-133v-1000z m100 950c9 0 17-7 17-17s-8-16-17-16c-9 0-17 7-17 16s8 17 17 17z m0-867c9 0 17-7 17-16s-8-17-17-17c-9 0-17 7-17 17s8 16 17 16z m-67 867c10 0 17-7 17-17s-7-16-17-16-16 7-16 16 7 17 16 17z m0-867c10 0 17-7 17-16s-7-17-17-17-16 7-16 17 7 16 16 16z m-366 267h133v650h-133v-650z m100 50c9 0 16-7 16-17 0-9-7-16-16-16-9 0-17 7-17 16 0 10 8 17 17 17z m-67 0c9 0 17-7 17-17 0-9-8-16-17-16s-17 7-17 16c0 10 8 17 17 17z m-33-400h133v317h-133v-317z m100 300c9 0 16-7 16-17 0-9-7-16-16-16-9 0-17 7-17 16 0 10 8 17 17 17z m-67 0c9 0 17-7 17-17 0-9-8-16-17-16s-17 7-17 16c0 10 8 17 17 17z m617 700h-150v-467h166v450c0 10-7 17-16 17z m-117-450c-9 0-17 8-17 17s8 16 17 16 17-7 17-16-8-17-17-17z m67 0c-9 0-17 8-17 17s8 16 17 16 16-7 16-16-7-17-16-17z m-800 433v-966c0-10 7-17 16-17h150v1000h-150c-9 0-16-7-16-17z m133-33c9 0 17-7 17-17s-8-16-17-16-17 7-17 16 8 17 17 17z m0-867c9 0 17-7 17-16s-8-17-17-17-17 7-17 17 8 16 17 16z m-67 867c10 0 17-7 17-17s-7-16-17-16c-9 0-16 7-16 16s7 17 16 17z m0-867c10 0 17-7 17-16s-7-17-17-17c-9 0-16 7-16 17s7 16 16 16z m634-83h150c9 0 16 7 16 17v483h-166v-500z m100 483c9 0 16-7 16-16s-7-17-16-17-17 8-17 17 8 16 17 16z m-67 0c9 0 17-7 17-16s-8-17-17-17-17 8-17 17 8 16 17 16z m-367 217h134v300h-134v-300z m100 50c10 0 17-7 17-17 0-9-7-16-17-16s-16 7-16 16c0 10 7 17 16 17z m-66 0c9 0 16-7 16-17 0-9-7-16-16-16s-17 7-17 16c0 10 8 17 17 17z" horiz-adv-x="1000" />

<glyph glyph-name="pipe-8" unicode="&#xe8b0;" d="M950 275h50v17c0 27-22 50-50 50h-286c-7 19-26 33-47 33h-67v97c7 4 13 9 19 14l84-14c5-2 9-2 14-2 10 0 21 3 30 10 12 9 20 24 20 40v77c0 16-8 30-20 40-13 9-29 12-44 8l-84-15c-18 18-42 28-69 28-27 0-51-10-69-28l-84 15c-15 4-31 1-43-8-13-10-21-24-21-40v-77c0-16 8-31 21-40 8-7 19-10 29-10 5 0 9 0 14 2l84 14c6-5 12-10 19-14v-97h-67c-21 0-40-14-47-33h-286c-28 0-50-23-50-50v-17h83c10 0 17-7 17-17 0-9-7-16-17-16h-83v-117c0-28 22-50 50-50h286c7-19 26-33 47-33h234c21 0 40 14 47 33h286c28 0 50 22 50 50v117h-50c-9 0-17 7-17 16 0 10 8 17 17 17z m-800-33c-9 0-17 7-17 16s8 17 17 17c9 0 17-7 17-17s-8-16-17-16z m183 0h-116c-9 0-17 7-17 16 0 10 8 17 17 17h116v-33z m117 273c0 0 0 0 0 0-3 3-5 7-7 10 0 0 0 0-1 0-1 3-3 7-4 10-1 1-1 3-1 4-1 3-2 5-2 7-1 4-2 8-2 12 0 5 1 9 2 13 0 2 1 4 2 6 0 2 0 3 1 5 1 3 3 6 4 9 1 1 1 1 1 1 2 3 4 6 7 9 0 1 0 1 0 1 12 14 30 23 50 23s38-9 50-23c0 0 0 0 0-1 3-3 5-6 7-9 0 0 1 0 1-1 1-3 3-6 4-9 1-2 1-3 2-5 0-2 1-4 1-6 1-4 2-8 2-13 0-4-1-8-2-12 0-2-1-4-1-7-1-1-1-3-2-4-1-3-3-7-4-10 0 0-1 0-1 0-2-3-4-7-7-10 0 0 0 0 0 0-6-8-14-14-23-18-17-7-36-7-54 0-9 4-17 10-23 18z m67-55v-85h-34v85c1 0 1 0 2 0 5-1 10-2 15-2s10 1 15 2c1 0 1 0 2 0z m116-202v-166c0-9-7-17-16-17h-234c-9 0-16 8-16 17v166 67c0 9 7 17 16 17h84 66 84c9 0 16-8 16-17v-67z m184-16h-150v33h150c9 0 16-7 16-17 0-9-7-16-16-16z m66 0c-9 0-16 7-16 16s7 17 16 17c10 0 17-7 17-17s-7-16-17-16z" horiz-adv-x="1000" />

<glyph glyph-name="pipe-11" unicode="&#xe8b3;" d="M600 564c3 0 7 2 10 4l80 63h293c10 0 17 7 17 17v66c0 10-7 17-17 17h-333c-3 0-7-2-10-3l-78-64h-12v17c0 28-22 50-50 50-28 0-50-22-50-50v-17h-17c-10 0-16-6-16-16v-67-50h-34c-21 0-40-13-46-33h-287c-28 0-50-22-50-50v-167c0-28 22-50 50-50h33v83c0 10 7 17 17 17h50v50c0 10 7 17 17 17h66c10 0 17-7 17-17s-7-17-17-17h-50v-50c0-10-6-16-16-16h-50v-67h220c6-20 25-33 46-33h234c21 0 40 13 46 33h287c28 0 50 22 50 50v117h-50c-10 0-17 6-17 16 0 10 7 17 17 17h50v17c0 28-22 50-50 50h-287c-6 20-25 33-46 33h-34v33h17z m283-133c10 0 17-7 17-17 0-10-7-16-17-16-10 0-16 6-16 16 0 9 8 17 16 17z m-216 0h150c10 0 16-7 16-17 0-10-6-16-16-16h-150v33z m-184 250c0 10 7 17 17 17 10 0 17-7 17-17v-17h-34v17z m-33-117h100v-33h-100v33z m167-66c10 0 16-7 16-17v-67-166c0-10-6-17-16-17h-234c-10 0-16 7-16 17v233c0 10 6 17 16 17h50 134 50z m-455-375l-49 68c-6 8-21 8-26 0l-49-68c-31-44-31-95 2-129 17-17 38-25 60-25 23 0 45 8 60 25 23 24 42 64 2 129z" horiz-adv-x="1000" />

<glyph glyph-name="plier-2" unicode="&#xe8b6;" d="M633 494l54 108 3 7c13 27 26 58 26 97-1 76-72 144-150 144h-67-65c-78 0-149-68-150-144 0-39 14-70 26-97l56-112-67-629c0-4 1-9 5-13 3-3 7-5 12-5h50c8 0 15 6 16 14l98 619h38l98-619c1-8 8-14 17-14h50c4 0 9 2 12 5 3 4 5 9 4 13l-66 626z m-249 40l-41 82-3 7c-11 25-23 51-23 83 1 57 58 111 117 111h33l-25-34c-52-3-91-38-91-83 0-44 39-83 83-83h2l-52-83z m115 16c-9 0-16 8-16 17s7 16 16 16c9 0 17-7 17-16s-7-17-17-17z m-33 100h-32c-23 0-50 22-50 50 0 29 29 50 67 50 5 0 10 3 13 7l36 48 36-48c3-4 8-7 13-7 38 0 67-21 67-50 0-28-27-50-50-50h-100z m181-767l-95 600h49l63-600h-17z" horiz-adv-x="1000" />

<glyph glyph-name="plier-4" unicode="&#xe8b8;" d="M683-95l-33 414c-1 9-8 15-17 15v123c0 31-11 60-31 82l41 168c3 11 1 22-6 31-13 17-42 18-56 1l-82-96-53 52c-3 6-13 33 15 62l30 30c9 8 13 20 11 32-2 12-10 22-20 27-10 5-21 5-31 1-28-12-121-59-133-169-3-18 0-37 6-55 10-29 33-83 76-128v-161c-9 0-16-6-17-15l-33-414c-2-15 4-29 14-39l3-3c9-9 20-13 31-13s23 4 32 13l22 22c8 8 13 19 14 31l33 398 17 51 17-51 34-398c1-12 6-23 14-31l21-22c9-8 20-13 32-13 12 0 24 5 32 13l3 3c10 10 15 24 14 39z m-76 813c1 1 3 1 4-1 0 0 0-1 0-2l-37-148-52 52 85 99z m-136-384h-38v132l64-54-26-78z m129 0h-38l-30 89c0 1-1 2-1 2 0 1 0 2-1 2-1 1-2 3-3 4l-99 83c-41 40-63 92-72 120-5 14-7 27-5 40 11 92 89 132 113 142 1 1 2 1 3 0 1 0 2-2 2-2 0-1 0-3-1-4l-30-30c-40-40-30-85-19-104 0-1 1-2 2-3l67-67 83-83 2-2c17-17 27-40 27-64v-123z" horiz-adv-x="1000" />

<glyph glyph-name="plug-3" unicode="&#xe8bc;" d="M767 633h-50v167c0 28-23 50-50 50s-50-22-50-50v-167h-234v167c0 28-22 50-50 50s-50-22-50-50v-167h-50c-9 0-16-7-16-16v-126c0-84 31-165 87-227 51-56 79-129 79-204v-43c0-46 38-84 84-84h16v-66c0-10 8-17 17-17 9 0 17 7 17 17v66h16c46 0 84 38 84 84v42c0 76 28 149 79 205 56 62 87 143 87 227v126c0 9-7 16-16 16z m-417 0h-33v167c0 9 7 17 16 17s17-8 17-17v-167z m228-245l-116-116c-3-4-8-5-12-5s-8 1-12 5c-6 6-6 17 0 23l88 88h-93c-6 0-12 4-15 11-3 6-1 13 4 18l116 116c7 7 17 7 24 0 6-6 6-17 0-23l-88-88h93c6 0 13-4 15-11 3-6 1-13-4-18z m105 245h-33v167c0 9 8 17 17 17s16-8 16-17v-167z" horiz-adv-x="1000" />

<glyph glyph-name="plug-4" unicode="&#xe8bd;" d="M767 633h-50v167c0 28-23 50-50 50s-50-22-50-50v-167h-234v167c0 28-22 50-50 50s-50-22-50-50v-167h-50c-27 0-50-22-50-50 0-21 14-40 34-47v-319c0-96 73-174 166-183v-48c0-29 24-53 53-53h47v-66c0-10 8-17 17-17 9 0 17 7 17 17v66h47c29 0 53 24 53 53v48c93 9 166 87 166 183v319c20 7 34 26 34 47 0 28-23 50-50 50z m-189-328l-116-117c-3-3-8-5-12-5-4 0-8 2-12 5-6 7-6 17 0 24l88 88h-93c-6 0-12 4-15 10-3 7-1 14 4 18l116 117c7 7 17 7 24 0s6-17 0-23l-88-89h93c6 0 13-4 15-10 3-6 1-13-4-18z m189 262h-534c-9 0-16 7-16 16 0 10 7 17 16 17h67 67 266 67 67c9 0 16-7 16-17 0-9-7-16-16-16z" horiz-adv-x="1000" />

<glyph glyph-name="plumbering" unicode="&#xe8bf;" d="M967-17h-17v84c0 270-215 491-483 499v151h16c19 0 34 15 34 33v67c0 18-15 33-34 33h-300c-18 0-33-15-33-33v-67c0-18 15-33 33-33h17v-150h-67v16c0 19-15 34-33 34h-67c-18 0-33-15-33-34v-300c0-18 15-33 33-33h67c18 0 33 15 33 33v17h317c129 0 233-105 233-233v-84h-16c-19 0-34-15-34-33v-67c0-18 15-33 34-33h300c18 0 33 15 33 33v67c0 18-15 33-33 33z m-867 300h-67v300h67v-33 0-233c0 0 0 0 0 0v-34z m759-133c9 1 17-5 19-14 2-12 3-23 4-35 1-9-6-17-15-18-1 0-1 0-2 0-8 0-16 7-16 16-1 10-2 21-4 32-2 9 5 17 14 19z m24-117v-50h-33v50c0 10 7 17 17 17 9 0 16-7 16-17z m-139 329c7 7 17 6 23-1 29-31 53-66 72-104 4-8 1-18-7-22-3-1-5-2-8-2-6 0-12 4-15 10-17 35-39 67-66 96-6 6-6 17 1 23z m-527 388h-34v67h300v-67h-33 0-233c0 0 0 0 0 0z m166-283c-9 0-16 7-16 16s7 17 16 17 17-7 17-17-7-16-17-16z m17 100c0-10-7-17-17-17s-16 8-16 17v100c0 9 7 16 16 16s17-7 17-16v-100z m117-89c-1-8-9-14-17-14-1 0-1 0-2 0-16 2-32 3-48 3-9 0-17 7-17 16s8 17 17 17c17 0 35-1 52-3 9-1 16-9 15-19z m77-38c-9 3-13 13-10 22 4 8 14 12 22 9 44-17 85-41 121-72 7-5 8-16 3-23-4-4-9-6-13-6-4 0-8 1-11 4-34 28-71 50-112 66z m373-557h-300v67h33 0 167c0 0 0 0 0 0h0c0 0 0 0 0 0h66c0 0 0 0 1 0h33v-67z" horiz-adv-x="1000" />

<glyph glyph-name="relief-valve-2" unicode="&#xe8c7;" d="M984 60h-129v97h129c9 0 16 7 16 16 0 9-7 16-16 16h-129v5c0 33-27 59-59 59h-102v81c8 4 17 8 25 13l-9 12c0 0 0 1-1 1-20 34-56 55-96 55s-76-21-96-55l-10-13c8-5 17-9 25-13v-81h-102c-33 0-59-26-59-59v-8c-64 8-113 62-113 128v407c0 9-7 16-16 16-9 0-16-7-16-16v-407c0-84 64-152 145-161v-93c-135 8-242 119-242 254v58c5 0 10 2 14 4 1 0 2 1 3 1 4 2 7 3 11 6 1 0 2 1 3 2 4 3 8 6 12 9 18 18 39 65 1 124l-44 63v43h32c9 0 16 7 16 16v33h17c9 0 16 7 16 16 0 9-7 16-16 16h-33c-9 0-16-7-16-16v-32h-16v64c0 9-7 16-16 16s-16-7-16-16v-64h-81c-9 0-16-8-16-17 0-9 7-16 16-16h81v-43l-45-64c-27-43-26-88 1-121 0-1 1-1 1-2 12-12 27-19 43-22v-58c0-153 121-277 274-286v-6c0-33 26-59 59-59h366c32 0 59 26 59 59v5h129c9 0 16 8 16 17 0 9-7 16-16 16z m-419 264c0 0 0-1 0-1 8-1 15-3 23-4 1 0 1 0 2 0 8-1 15-1 23-1 8 0 15 0 23 1 1 0 1 0 2 0 8 1 15 3 22 4 1 0 1 1 1 1v-71h-96v71z m225-238c0-32-26-59-58-59h-238c-32 0-58 27-58 59v44c0 32 26 59 58 59h238c32 0 58-27 58-59v-44z m-59 70h-237c-14 0-26-11-26-26v-6h48c9 0 16-7 16-16 0-9-7-16-16-16h-48v-6c0-14 12-26 26-26h237c15 0 27 12 27 26v6h-48c-9 0-16 7-16 16 0 9 7 16 16 16h48v6c0 15-12 26-27 26z m-250 209l8 13c27 43 73 69 124 69 51 0 97-26 124-69l9-13c47 39 77 97 77 162 0 116-94 210-210 210s-210-94-210-210c0-65 31-124 78-162z m261 179c9 0 16-8 16-17s-7-16-16-16c-9 0-16 8-16 16s7 17 16 17z m-32 80c9 0 16-7 16-16 0-9-7-16-16-16s-16 7-16 16c0 9 7 16 16 16z m-97 49c9 0 16-8 16-17s-7-16-16-16c-9 0-16 8-16 16s7 17 16 17z m-64-101c6 6 17 5 22-2l54-64c6-7 5-17-2-23-3-3-6-4-10-4-5 0-9 2-12 6l-54 65c-6 6-5 17 2 22z m-33 52c9 0 16-7 16-16 0-9-7-16-16-16-9 0-16 7-16 16 0 9 7 16 16 16z m-32-80c9 0 16-8 16-17s-7-16-16-16-16 8-16 16 7 17 16 17z" horiz-adv-x="1000" />

<glyph glyph-name="road-barrier" unicode="&#xe8c8;" d="M276 50h-52v333c0 13-10 23-22 23h-70c-13 0-23-10-23-23v-333h-51c-12 0-22-10-22-22v-52c0-12 10-22 22-22h218c12 0 22 10 22 22v52c0 12-10 22-22 22z m666 0h-51v333c0 13-10 23-23 23h-70c-12 0-22-10-22-23v-333h-52c-12 0-22-10-22-22v-52c0-12 10-22 22-22h218c12 0 23 10 23 22v52c0 12-11 22-23 22z m-928 561c0 0 0 0 0 0 2 0 8 1 12 7l73 105c4 4 4 10 2 15-3 5-8 8-14 8h-69c-10 0-18-8-18-17v-103c0-10 7-15 14-15z m268-159c3-5 8-9 14-9h157c7 0 14 4 18 9l207 270c4 5 5 11 2 16-2 5-7 8-13 8h-158c-6 0-14-3-18-9l-207-269c-4-5-4-11-2-16z m290 0c2-5 8-9 14-9h157c7 0 14 4 18 9l207 270c4 5 5 11 2 16-2 5-7 8-14 8h-157c-7 0-14-3-18-9l-207-269c-4-5-5-11-2-16z m-390 0l207 270c3 5 4 11 2 16-3 5-8 8-14 8h-158c-6 0-13-3-18-9l-195-253c-4-5-6-11-6-17v-6c0-10 8-18 18-18h146c6 0 13 4 18 9z m804 155c-2 0-7-1-11-6l-111-133c-4-5-5-11-2-16 2-5 7-9 14-9h107c9 0 17 8 17 18v131c0 10-7 15-14 15z m-254-407v32c0 18-15 32-33 32h-398c-18 0-32-14-32-32v-32c0-18 14-33 32-33h398c18 0 33 15 33 33z" horiz-adv-x="1000" />

<glyph glyph-name="road-stopper" unicode="&#xe8c9;" d="M944 37h-52l-46 144c-2 9-11 15-20 15h-652c-9 0-18-6-20-15l-46-144h-52c-30 0-55-25-55-56v-76c0-30 25-55 55-55h888c30 0 55 25 55 55v76c0 31-25 56-55 56z m-606 618h325c14 0 20 6 23 11 5 6 4 14 2 20l-28 88c-13 42-60 76-103 76h-114c-43 0-90-34-103-76l-28-89 0 0c0-2-2-12 4-21 4-4 10-9 22-9z m-114-327h552c6 0 11 2 15 7 3 4 4 10 2 16l-50 158c-2 9-11 15-20 15h-446c-9 0-18-6-20-15l-50-158c-2-6-1-12 3-16 3-5 8-7 14-7z" horiz-adv-x="1000" />

<glyph glyph-name="roller-and-paint" unicode="&#xe8ca;" d="M746 486c0 0-13-1-13 6 0 2 0 8 0 8 0 42-34 76-75 76h-392c-41 0-75-34-75-76v-92c0-41 34-75 75-75h392c41 0 75 34 75 75 0 0 0 15 0 20 0 9 13 8 13 8 7 0 13-6 13-13v-127c0-7-6-13-13-13h-222c-35 0-63-28-63-62v-137c0-9-8-9-12-10-17-5-31-16-31-43v-135c0-46 44-46 68-46 24 0 68 0 68 46v135c0 27-15 39-33 43-3 1-10 2-10 10v137c0 6 6 12 13 12h222c35 0 63 28 63 63v127c0 35-28 63-63 63z m-493 135h424c22 0 40 18 40 40v124c0 22-18 40-40 40h-72c-22 0-40-18-40-40v-7c0-8-7-15-15-15h-43c-8 0-15 7-15 15v32c0 22-18 40-40 40h-72c-22 0-40-18-40-40v-45c0-8-7-15-15-15h-72c-22 0-40-18-40-40v-49c0-22 18-40 40-40z" horiz-adv-x="1000" />

<glyph glyph-name="roof" unicode="&#xe8cb;" d="M997 837c-4 4-9 7-14 7h-267-274c-2 0-3-1-4-1-2 0-3 1-5 1h-1-268-4c-8 0-15-6-16-14l-20-96c0 0 0 0 0 0l-40-196-41-197c0 0 0 0 0 0l-40-196c-17-82 36-161 117-178 10-2 21-3 31-3 46 0 89 21 117 56 14-52 57-95 114-107 10-2 21-3 31-3 46 0 89 22 117 56 14-52 57-95 114-107 10-2 21-3 31-3 69 0 132 49 147 121l40 196c0 0 0 0 0 0l40 197c0 0 0 0 0 0l41 196c0 0 0 0 0 0l40 189c0 0 0 1 0 1l17 67c1 5 0 10-3 14z m-304-27c-22-53-86-90-143-78-41 8-74 39-87 78h230z m-536-83l13 67c26-25 67-51 111-51 38 0 88 14 125 37l-20-100c-3-15-9-28-17-41 0 0-1-1-1-1-1-2-2-3-3-4-27-35-72-54-117-45-6 1-12 3-18 6-1 0-2 0-2 0-6 3-12 5-17 9 0 0-1 0-1 0-16 11-30 24-39 41-1 0-1 1-1 1-3 6-6 11-8 16 0 1-1 2-1 3-2 6-3 11-5 17 0 1 0 1 0 2-1 6-2 12-2 19 0 0 0 0 0 0 0 9 1 17 3 24z m98-514c-26-17-57-23-88-17-4 1-7 2-11 3-1 0-2 1-2 1-3 1-6 2-9 3 0 0-1 1-1 1-46 19-74 67-70 117 0 1 0 1 0 2 1 3 1 7 2 11l22 104c0 0 0 0 0 0 2-5 5-9 8-14 0 0 1-1 1-2 3-3 5-7 8-10 1-1 2-3 4-4 2-3 4-5 7-8 1-1 2-2 4-4 2-2 5-4 7-6 2-1 4-3 5-4 3-2 5-4 8-5 2-1 4-3 6-4 2-1 5-3 8-4 2-1 4-2 6-3 3-1 7-3 10-4 2-1 3-1 5-2 5-1 10-3 16-4 5-1 11-2 16-2 2-1 4-1 5-1 3 0 6 0 9 0 1 0 2 0 3 0 1 0 3 0 4 0 4 0 8 1 11 1 2 0 3 1 5 1 4 0 8 1 12 2 1 0 2 1 3 1 5 1 9 3 14 4 1 1 3 1 4 2 3 1 7 3 10 4 1 1 3 2 4 3 4 1 7 3 10 5 1 1 2 1 3 2 4 3 8 6 12 9 0 0 1 0 1 0l-22-104c0-3-1-6-2-10 0 0 0-1 0-1-8-26-25-48-48-63z m272-176c-6-30-24-57-50-74-26-17-57-23-88-17-31 6-57 24-74 50-17 26-23 58-17 88l21 104c0 0 0 0 0 0 3-5 5-9 8-14 22-33 56-56 96-64 5-1 10-2 15-3 0 0 1 0 2 0 12-1 24 0 36 2 1 0 2 0 3 0 3 1 6 1 9 2 2 0 3 1 4 1 3 1 6 2 9 3 1 0 3 1 4 1 3 1 6 2 8 4 2 0 3 1 5 2 2 1 5 2 7 3 2 1 3 2 5 3 2 1 4 2 6 4 0 0 0 0 1 0 3 2 5 4 8 7 1 0 2 1 3 2l-21-104z m30 319c-26-17-57-23-87-17-31 6-57 24-75 50-2 3-4 7-6 10-3 7-6 14-8 21 0 0 0 0 0 0-6 19-6 38-3 57l0 0 22 104c2-5 5-9 8-14 22-33 56-56 95-64 39-8 80-1 113 22 5 2 9 6 13 9l-21-104c-7-31-24-57-51-74z m272-176c-6-31-24-57-50-74-26-17-57-23-88-17-30 6-57 24-74 50-17 26-23 57-17 88l21 104c1 0 1 0 1-1 2-4 5-9 8-13 0-1 0-1 1-2 2-3 5-7 8-11 1-1 2-2 3-3 3-3 5-6 7-8 2-1 3-3 5-4 2-2 5-4 7-6 2-2 3-3 5-4 3-2 5-4 8-6 2-1 4-2 5-3 3-2 6-3 9-5 2-1 4-2 6-2 3-2 6-3 10-4 2-1 3-2 5-2 5-2 10-3 16-4 5-2 11-2 16-3 2 0 4 0 6 0 2 0 5-1 8-1 1 0 2 1 2 1 2 0 4 0 5 0 4 0 8 0 11 1 2 0 3 0 5 0 4 1 8 2 12 3 1 0 2 0 3 0 5 2 9 3 14 5 1 0 3 1 4 1 3 2 7 3 10 5 1 1 3 1 4 2 4 2 7 4 10 6 1 0 2 1 3 2 4 2 8 5 12 9 0 0 1 0 1 0l-22-104z m81 393c-6-31-24-57-50-74-26-18-58-23-88-17-4 1-8 2-12 3 0 0-1 0-2 0-3 1-6 3-9 4 0 0 0 0-1 0-17 8-32 20-44 34-2 3-4 6-6 9-5 6-8 13-11 20 0 0 0 1 0 1-9 21-11 44-6 67l27 109c11-28 30-52 57-68 0 0 0 0 0 0 4-2 7-4 11-6 2-1 4-1 5-2 3-1 6-2 9-3 5-2 10-3 15-4 6-2 11-2 16-3 2 0 4 0 6 0 3-1 7-1 10-1 0 0 1 0 2 0 1 0 2 0 3 0 5 0 10 1 14 1 2 0 4 1 5 1 6 1 12 2 18 3 1 1 2 1 3 1 5 2 10 4 15 6 1 0 3 1 5 2 5 2 11 5 16 8 4 3 9 6 13 9 0 0 0 0 0 0l-21-100z m40 191c0 0 0 0 0-1l0 0c0-2-1-4-1-6-1-2-1-4-2-5-1-2-1-4-2-6-1-2-1-3-2-5-1-2-2-3-3-5 0-2-1-3-2-5-1-1-2-3-3-5-1-1-2-3-3-4-1-1-2-3-3-4-1-2-2-3-4-4-1-2-2-3-3-4-2-1-3-3-4-4-1-1-3-2-4-3-1-2-3-3-5-4-1-1-2-2-3-3-2-1-4-2-6-3-1-1-2-1-3-2-2-1-4-2-6-4-1 0-2 0-3-1-3-1-5-2-7-3-1 0-2 0-3-1-3-1-5-2-8-2-1 0-1-1-2-1-3 0-6-1-9-2 0 0-1 0-2 0-3 0-6-1-9-1-1 0-1 0-2 0-3 0-7 0-10 0 0 0 0 0-1 0-7 0-15 1-23 2-29 6-53 25-68 53-2 5-5 11-7 16 0 1 0 2-1 3-2 6-3 11-4 17 0 1 0 2-1 3-1 6-1 12-2 19 0 0 0 1 0 2 0 6 1 12 1 18 0 0 0 1 0 1h232l-12-46z" horiz-adv-x="1000" />

<glyph glyph-name="ruler-1" unicode="&#xe8ce;" d="M750 117h-250v716c0 10-7 17-17 17h-233c-9 0-17-7-17-17v-50h67c9 0 17-7 17-16s-8-17-17-17h-67v-33h100c10 0 17-8 17-17s-7-17-17-17h-100v-33h67c9 0 17-7 17-17s-8-16-17-16h-67v-34h100c10 0 17-7 17-16s-7-17-17-17h-100v-33h67c9 0 17-8 17-17s-8-17-17-17h-67v-33h100c10 0 17-7 17-17s-7-16-17-16h-100v-34h67c9 0 17-7 17-16s-8-17-17-17h-67v-33h100c10 0 17-8 17-17s-7-17-17-17h-100v-33h67c9 0 17-7 17-17 0-9-8-16-17-16h-67v-34h100c10 0 17-7 17-16s-7-17-17-17h-100v-33h67c9 0 17-8 17-17s-8-17-17-17h-67v-33h100c10 0 17-7 17-17s-7-16-17-16h-100v-150c0-1 0-1 1-1 0-1 0-2 0-3 0 0 0-1 0-2 1 0 1-1 1-1 0 0 0-1 0-1 1-1 1-2 2-2 0-1 1-1 1-2 1-1 2-1 2-2 1 0 2-1 2-1 1 0 1-1 2-1 0 0 0 0 0 0 2-1 4-1 6-1h500c9 0 17 7 17 17v233c0 9-8 17-17 17z m-17-234h-443l200 200h243v-200z" horiz-adv-x="1000" />

<glyph glyph-name="saw-1" unicode="&#xe8d5;" d="M975 642l-194 194c-19 19-49 19-68 0l-2-2c-20-20-20-52 0-72l60-60-624-623-59 60c-20 19-53 19-72 0-20-20-20-52 0-72l192-192c16-17 38-25 59-25 22 0 43 8 60 25l0 0 36 36c4 4 6 10 5 15l-7 35 35-7c5-1 11 1 15 5 4 4 6 10 5 15l-7 35 35-7c5-1 11 1 15 5 4 4 6 10 5 15l-7 35 35-7c5-1 11 1 15 5 4 4 6 10 5 15l-7 35 35-7c5-1 11 1 15 5 4 4 6 10 5 15l-7 35 35-7c5-1 11 1 15 5 4 4 6 9 5 15l-7 35 35-7c5-1 11 1 15 5 4 4 6 9 5 15l-7 35 35-7c5-1 11 1 15 5 4 4 6 9 4 15l-7 35 35-7c6-1 12 1 16 5 4 4 6 9 4 15l-7 35 35-7c6-1 12 1 16 5 4 4 5 9 4 15l-7 35 35-7c6-1 12 0 16 4 4 4 5 10 4 16l-7 35 35-7c6-1 12 0 16 4 4 4 5 10 4 16l-7 35 35-7c6-1 12 0 16 4l36 36c16 16 24 38 24 60 0 23-8 44-24 60z m-743-744l-192 193c-7 6-7 17 0 24 3 3 7 5 12 5s8-2 12-5l225-226c-18-9-42-6-57 9z m729 662l-226 226c-7 7-7 17 0 24l2 2c3 3 6 4 10 4 4 0 7-1 10-4l194-194c9-9 14-22 14-36 0-7-1-15-4-22z" horiz-adv-x="1000" />

<glyph glyph-name="saw-2" unicode="&#xe8d6;" d="M984 170h-14c9 8 15 21 13 35-2 21-19 36-40 36h0c-5 0-7 4-8 6 0 2 0 6 5 8 19 9 29 30 22 50-6 20-26 31-47 27-6-1-8 2-9 4-1 2-2 6 3 10 17 12 22 34 11 53-10 18-32 25-52 16-5-2-8 1-9 3-2 2-4 5 0 10 15 15 15 38 1 54-14 16-37 18-55 5-5-3-8-1-10 0-2 2-4 5-1 11 11 18 6 40-11 53-17 12-40 10-54-6l-1-1c-4-4-8-3-10-1-2 1-5 3-3 10 7 20-2 41-22 49-19 9-41 2-51-16l-1-2c-3-5-7-4-9-3-2 0-6 2-5 8l0 2c2 20-11 39-32 43-21 5-41-7-47-27l-1-2c-1-5-5-5-8-5-2 0-6 2-7 7l0 2c-2 21-19 36-40 36-21 0-38-15-40-36l-1-2c0-5-4-7-6-7-3 0-7 0-9 5l0 2c-7 20-27 32-47 27-21-4-34-23-32-43l0-2c1-6-3-8-5-8-2-1-6-2-9 3l-1 2c-11 18-32 25-52 16-19-8-28-29-21-50 1-6-2-8-4-9-2-2-6-3-10 2-15 16-37 18-54 6-17-13-22-35-11-54 3-5 0-8-1-10-2-1-6-3-11 1-17 12-40 10-54-6-14-16-14-39 1-55 3-4 2-7 0-9-1-2-4-5-10-2-19 8-41 1-52-17-10-19-5-41 12-53 5-4 4-8 3-10-1-2-4-5-9-4-21 4-41-7-47-27-7-20 2-41 22-50 5-2 5-6 4-8 0-2-2-6-7-6 0 0 0 0 0 0-22 0-39-15-41-36-2-17 7-33 21-40-3-3-5-7-5-12v-82c0-9 8-16 17-16h951c9 0 16 7 16 16v82c0 9-7 17-16 17z m-492 213c121 0 220-94 229-213h-33c-8 101-93 180-196 180s-188-79-196-180h-33c9 119 108 213 229 213z m104-149c-6-6-17-6-23 0-6 7-6 17 0 24 6 6 17 6 23 0 7-7 7-17 0-24z m-104-15c30 0 56-21 63-49h-35c-5 10-16 16-28 16s-23-6-29-16h-34c7 28 32 49 63 49z m-17 65c0 10 8 17 17 17s16-7 16-17-7-16-16-16-17 7-17 16z m-64-50c-7-6-17-6-23 0-7 7-7 17 0 24 6 6 16 6 23 0 6-7 6-17 0-24z m556-146h-918v49h213 459 224 22v-49z" horiz-adv-x="1000" />

<glyph glyph-name="saw-3" unicode="&#xe8d7;" d="M992-43c-1 22-10 42-26 58l-37 38c-7 7-16 15-26 20-45 24-74 55-83 89 0 1-1 2-1 2l-15 35c-6 16-21 27-38 30-17 4-34-2-47-14l-11-12-13 13 47 47c72 71 72 188 0 259l-267 268c-39 39-91 60-145 60-55 0-107-21-146-60l-31-32-36 36c-6 6-17 6-23 0l-48-48c-3-3-4-7-4-11 0-5 1-9 4-12l36-36-59-59c-10-9-15-22-15-35 0-13 5-26 15-35 19-19 52-19 71 0l47 47 23-24-35-35c-3-3-5-8-5-12 0-4 2-9 5-12l330-330c4-3 8-5 12-5s9 2 12 5l35 35 24-23-47-47c-20-20-20-52 0-71 9-10 22-15 35-15 14 0 26 5 36 15l59 59 12-13-8-7c-12-13-18-30-15-48 4-17 15-31 31-38l35-15c1 0 2 0 2 0 34-10 62-36 89-83l0-1c4-10 9-22 19-31l11-12 48 47c6 7 17 7 23 0 7-6 7-17 0-23l-47-48c16-15 37-23 58-23 23 0 45 8 62 25l23 24c16 15 24 36 24 58z m-887 754l-23 24 23 23 24-23-24-24z m461-484l-24 24c6 6 6 17 0 24-7 6-17 6-24 0l-47-48-307 307 36 35h0l12 12c6 7 6 17 0 24-7 6-17 6-24 0l-24 23 91 91c41 41 108 41 149 0l268-268c15-15 24-36 24-59 0-22-9-43-24-59l-106-106z m94-70l-12 11 11 11 13 13 12-12-24-23z" horiz-adv-x="1000" />

</font>
</defs>
</svg>
